<svg width="100" height="100" viewBox="0 0 100 100" fill="none" xmlns="http://www.w3.org/2000/svg">
<g clip-path="url(#clip0)">
<path fill-rule="evenodd" clip-rule="evenodd" d="M92.0322 85.2555L49.9572 82.8428L7.96777 85.2555V88.9514C7.96777 90.9875 9.62754 92.6473 11.6637 92.6473H88.3363C90.3668 92.6473 92.0322 90.9875 92.0322 88.9514V85.2555Z" fill="#BED8FB"/>
<path fill-rule="evenodd" clip-rule="evenodd" d="M92.0322 85.2554H81.4008H78.9768V88.9513C78.9768 90.9874 77.317 92.6472 75.2809 92.6472H88.3363C90.3668 92.6472 92.0322 90.9874 92.0322 88.9513V85.2554Z" fill="#8EAADF"/>
<path fill-rule="evenodd" clip-rule="evenodd" d="M70.3018 50.2918C69.9082 50.2918 69.5203 50.3375 69.1496 50.423C68.8873 50.4857 68.6307 50.5713 68.3853 50.674C67.8035 48.558 65.8701 47.0008 63.5715 47.0008C62.5449 47.0008 61.5924 47.3088 60.8053 47.8392C59.9154 46.459 58.3643 45.5463 56.6017 45.5463C55.7576 45.5463 54.9648 45.7574 54.2689 46.1281C52.575 47.0406 16.4773 69.5076 19.7625 56.5373C19.5914 56.5144 19.4146 56.5088 19.2377 56.5088C18.0686 56.5088 16.9904 56.908 16.1406 57.5867C15.0113 58.3625 14.2186 59.583 14.0189 61.0033C13.8535 60.9861 13.6824 60.9748 13.5113 60.9748C10.7508 60.9748 8.51504 63.2107 8.51504 65.9656C8.51504 66.3078 8.54922 66.6387 8.61777 66.958C6.49043 67.534 4.92754 69.4732 4.92754 71.7775C4.92754 72.6445 5.15 73.4545 5.53789 74.1617L53.6984 77.7836L94.4615 74.1617C94.8437 73.4545 95.066 72.6445 95.066 71.7775C95.066 69.4732 93.5033 67.534 91.3814 66.958C91.4441 66.6387 91.4783 66.3078 91.4783 65.9656C91.4783 64.1861 90.543 62.6232 89.1398 61.7392C88.3699 61.2545 87.4631 60.975 86.4877 60.975C86.3109 60.975 86.1398 60.9863 85.9744 61.0035C85.7748 59.5832 84.982 58.3627 83.8584 57.5869C83.0885 56.9765 82.1416 56.5886 81.1035 56.5203C80.9894 56.509 80.8754 56.509 80.7613 56.509C80.2766 56.509 79.8088 56.5773 79.3697 56.7029C78.7139 54.832 76.9799 53.4633 74.9096 53.3605C74.1572 51.558 72.3777 50.2918 70.3018 50.2918Z" fill="#FFD772"/>
<path fill-rule="evenodd" clip-rule="evenodd" d="M42.6168 44.343C42.2574 48.3641 31.8314 52.6932 25.6602 49.6987C22.8541 51.3528 20.7152 53.4061 19.9395 55.91C19.8768 56.1209 19.8141 56.3321 19.7627 56.5374C18.7303 60.6211 20.4871 63.0167 23.6297 62.7202C25.9281 62.5034 29.5158 61.2829 32.6641 64.7506C36.4568 68.9143 45.7309 68.3098 48.8449 63.9749C50.5902 61.5452 51.5143 58.9614 53.71 54.7348C55.5236 51.2385 55.8545 48.1186 54.2689 46.128C52.883 44.3883 50.0313 43.5043 45.4229 43.9834C44.5674 44.0749 43.6205 44.1946 42.6168 44.343Z" fill="#F9F6F6"/>
<path fill-rule="evenodd" clip-rule="evenodd" d="M42.1606 44.1317C37.7289 42.5747 28.9625 43.2077 26.0195 48.9628C25.877 49.2479 25.7516 49.476 25.6602 49.6985C25.4092 50.2803 25.3807 50.7993 25.7914 52.2423C26.5043 54.712 30.4627 56.9022 33.7363 54.8659C35.299 53.8962 36.2002 51.8258 39.8961 51.7003C47.0027 51.4665 46.9285 46.5214 42.6166 44.3425C42.4686 44.2686 42.3145 44.2001 42.1606 44.1317Z" fill="#FFD772"/>
<path fill-rule="evenodd" clip-rule="evenodd" d="M73.0109 39.0327C70.376 42.2153 68.9158 46.2135 69.1496 50.4229C70.7752 53.6854 72.566 54.5866 74.2371 55.8243C77.0775 55.9725 77.6648 57.2559 79.3246 57.2559C79.4387 57.2559 80.99 56.5087 81.1041 56.5202C81.4805 55.3167 81.7258 54.062 81.8113 52.7843C81.874 51.8432 81.8512 50.8792 81.7371 49.9153C81.2123 45.3637 78.7826 41.4567 75.2521 38.7704C74.1572 37.9376 73.8893 37.9717 73.0109 39.0327Z" fill="#A7E9A6"/>
<path fill-rule="evenodd" clip-rule="evenodd" d="M95.4486 50.7196C91.5988 49.4477 87.3953 49.6358 83.6879 51.5979C83.0264 51.9457 82.3988 52.3452 81.8115 52.7842C80.4313 53.8621 78.3152 57.5752 79.3248 58.9955C80.3629 59.0639 82.1766 60.5811 82.9465 61.1858C83.0492 61.26 85.8781 61.7391 86.3857 61.7391C87.3611 61.7391 88.3705 61.2543 89.1406 61.7391C92.808 59.7713 95.3061 56.4233 96.4127 52.5448C96.7604 51.3356 96.6406 51.1131 95.4486 50.7196Z" fill="#4FC9AF"/>
<path fill-rule="evenodd" clip-rule="evenodd" d="M94.4619 74.1615H5.53809H1.30039C0.581836 74.1615 0 74.749 0 75.4619V79.7111C0 82.7568 2.49238 85.2551 5.54375 85.2551H7.96777H92.032H94.4504C97.5018 85.2551 100 82.7568 100 79.7111V75.4619C100 74.749 99.4125 74.1615 98.6996 74.1615H94.4619Z" fill="#F9F6F6"/>
<path fill-rule="evenodd" clip-rule="evenodd" d="M79.3703 56.7024C78.7145 54.8315 76.9805 53.4628 74.9102 53.3601C74.1572 51.5577 72.3777 50.2915 70.3018 50.2915C69.9082 50.2915 69.5203 50.3372 69.1496 50.4228C68.8873 50.4855 68.6307 50.571 68.3854 50.6737C67.8035 48.5577 65.8701 47.0005 63.5715 47.0005C63.4117 47.0005 63.2522 47.0118 63.098 47.0233C65.5734 51.3866 66.9707 56.3431 66.9707 61.5962C66.9707 66.0622 65.9611 70.3114 64.1418 74.1614H94.4617C94.844 73.4542 95.0662 72.6442 95.0662 71.7772C95.0662 69.4729 93.5035 67.5337 91.3816 66.9577C91.4443 66.6384 91.4785 66.3075 91.4785 65.9653C91.4785 64.1858 90.5432 62.623 89.14 61.739C88.3701 61.2542 87.4633 60.9747 86.4879 60.9747C86.3111 60.9747 86.14 60.986 85.9746 61.0032C85.775 59.5829 84.9822 58.3624 83.8586 57.5866C83.0887 56.9763 82.1418 56.5884 81.1037 56.52C80.9897 56.5087 80.8756 56.5087 80.7615 56.5087C80.2771 56.5085 79.8096 56.577 79.3703 56.7024Z" fill="#FBBA58"/>
<path fill-rule="evenodd" clip-rule="evenodd" d="M81.7373 49.9152C81.2125 45.3637 78.7828 41.4566 75.2523 38.7703C74.1572 37.9375 73.8893 37.9719 73.0109 39.0326C72.6631 39.449 72.3379 39.8824 72.0299 40.3273C75.0813 42.9682 77.1574 46.5957 77.6365 50.7537C77.7449 51.7232 77.7678 52.6816 77.7049 53.6227C77.6877 53.868 77.665 54.1074 77.6422 54.3471C78.4293 54.9346 79.0396 55.7559 79.3703 56.7027C79.8096 56.5773 80.2771 56.5088 80.7619 56.5088C80.876 56.5088 80.99 56.5088 81.1041 56.5201C81.4805 55.3166 81.7258 54.0619 81.8113 52.7842C81.8742 51.843 81.8514 50.8791 81.7373 49.9152Z" fill="#7FDBAE"/>
<path fill-rule="evenodd" clip-rule="evenodd" d="M96.4125 52.5446C96.7604 51.3354 96.6407 51.113 95.4487 50.7194C94.7016 50.4741 93.943 50.2802 93.1787 50.1434C93.2586 50.3944 93.1959 50.7366 93.0418 51.2784C91.9467 55.1227 89.4772 58.4536 85.8553 60.4214C85.9067 60.6096 85.9465 60.8036 85.975 61.0032C86.1405 60.986 86.3116 60.9747 86.4883 60.9747C87.4637 60.9747 88.3705 61.2542 89.1405 61.7389C92.8078 59.7712 95.3061 56.4231 96.4125 52.5446Z" fill="#26BB9E"/>
<path fill-rule="evenodd" clip-rule="evenodd" d="M40.8543 51.6378C46.9912 51.0046 46.7232 46.4188 42.6166 44.3428C42.4684 44.2686 42.3143 44.2003 42.1604 44.1317C38.2648 42.7628 31.0213 43.0879 27.3313 47.0862C30.8445 45.9284 34.8998 46.0938 37.4777 47.0006C37.6375 47.069 37.7914 47.1376 37.9397 47.2118C40.1016 48.3069 41.2023 50.0977 40.8543 51.6378Z" fill="#FBBA58"/>
<path fill-rule="evenodd" clip-rule="evenodd" d="M48.8451 63.9751C50.5904 61.5454 51.5145 58.9616 53.7102 54.735C55.5238 51.2387 55.8547 48.1188 54.2691 46.1282C53.2367 44.8334 51.3945 44.0122 48.617 43.8752C48.8053 44.0463 48.9764 44.229 49.1303 44.4227C50.0029 45.5178 50.2938 46.9495 50.0828 48.592C49.9117 49.9495 49.3928 51.4497 48.5713 53.0295C46.3811 57.2559 45.4514 59.8397 43.7062 62.2696C41.824 64.8876 37.7004 66.1424 33.8961 65.8172C38.1736 68.7661 46.0275 67.8934 48.8451 63.9751Z" fill="#E5E4ED"/>
<path fill-rule="evenodd" clip-rule="evenodd" d="M100 75.4619C100 74.749 99.4125 74.1615 98.6996 74.1615H94.4619H85.6443C86.3629 74.1615 86.9447 74.749 86.9447 75.4619V79.7111C86.9447 82.7568 84.4523 85.2551 81.401 85.2551H92.0324H94.4508C97.5022 85.2551 100 82.7568 100 79.7111V75.4619H100Z" fill="#E5E4ED"/>
<path d="M47.2293 32.2144C46.4449 32.2144 45.7826 31.6077 45.7256 30.8132C45.7146 30.6595 45.6916 30.4565 45.665 30.2214C45.3896 27.7853 44.658 21.314 52.7361 18.6194C59.0115 16.5196 57.9178 9.41163 57.8682 9.11006C57.733 8.28956 58.2869 7.51202 59.1072 7.37452C59.9274 7.23585 60.7039 7.78663 60.844 8.60616C60.8611 8.70655 61.2574 11.0999 60.6115 13.8452C59.7225 17.6243 57.3299 20.2651 53.6926 21.4821C47.9314 23.404 48.39 27.4595 48.6641 29.8825C48.6943 30.1507 48.7207 30.3823 48.7361 30.5978C48.7957 31.4292 48.1701 32.1513 47.3387 32.2108C47.3021 32.2132 47.2654 32.2144 47.2293 32.2144Z" fill="#BED8FB"/>
<path d="M56.7828 32.2143C56.0008 32.2143 55.3395 31.6112 55.2797 30.8188C55.2727 30.7258 55.2594 30.6154 55.2451 30.4904C55.0773 29.0319 54.567 24.5934 59.9398 22.8C63.2072 21.7055 62.725 18.0891 62.6592 17.6805C62.5272 16.8608 63.0816 16.0844 63.9008 15.9483C64.7199 15.8112 65.4945 16.3592 65.635 17.1774C66.0225 19.4334 65.5309 24.1104 60.8969 25.6625C58.0783 26.6033 58.0336 28.3201 58.2434 30.1461C58.2629 30.3156 58.2795 30.4658 58.2891 30.592C58.3518 31.4231 57.7289 32.1477 56.8978 32.2104C56.8594 32.2129 56.8209 32.2143 56.7828 32.2143Z" fill="#BED8FB"/>
<path d="M35.9078 32.2143C35.1258 32.2143 34.4645 31.6111 34.4047 30.8188C34.3977 30.7258 34.3844 30.6154 34.3701 30.4904C34.2024 29.0318 33.692 24.5934 39.0649 22.8C42.4289 21.6731 41.8133 17.8502 41.7856 17.6881C41.6445 16.8666 42.1961 16.0865 43.0174 15.9453C43.8402 15.8039 44.6192 16.3559 44.7602 17.1772C45.1477 19.4332 44.6559 24.1102 40.0221 25.6623C37.2035 26.6031 37.1588 28.3199 37.3686 30.1459C37.3881 30.3154 37.4049 30.4656 37.4143 30.5918C37.477 31.4229 36.8541 32.1475 36.0231 32.2102C35.9844 32.2129 35.9459 32.2143 35.9078 32.2143Z" fill="#BED8FB"/>
<path d="M65.3512 57.9495C64.965 57.9495 64.5787 57.8021 64.284 57.5073C63.8299 57.053 63.2252 56.8028 62.582 56.8028C61.9389 56.8028 61.3344 57.053 60.8801 57.5073C60.2906 58.0968 59.3353 58.0966 58.7459 57.5075C58.1566 56.9183 58.1564 55.9628 58.7457 55.3733C59.7701 54.3489 61.1324 53.7847 62.5818 53.7847C64.0315 53.7847 65.3938 54.3487 66.4182 55.3733C67.0074 55.9626 67.0074 56.9181 66.418 57.5075C66.1234 57.802 65.7373 57.9495 65.3512 57.9495Z" fill="#E29D7B"/>
<path d="M77.7678 68.467C77.3817 68.467 76.9955 68.3195 76.7008 68.025C76.1114 67.4357 76.1114 66.4803 76.7006 65.8908C77.7248 64.8664 79.0873 64.3021 80.5367 64.3021C81.9862 64.3021 83.3485 64.8662 84.3729 65.8908C84.9621 66.4801 84.9621 67.4355 84.3727 68.025C83.7832 68.614 82.828 68.6142 82.2385 68.0248C81.7844 67.5705 81.1797 67.3203 80.5365 67.3203C79.8932 67.3203 79.2889 67.5705 78.8346 68.0248C78.5403 68.3195 78.1539 68.467 77.7678 68.467Z" fill="#E29D7B"/>
<path d="M55.9018 67.2736C55.5172 67.2736 55.1328 67.1271 54.8389 66.8329L54.8332 66.8273C54.2438 66.2378 54.2438 65.2825 54.8332 64.6929C55.4225 64.1038 56.3779 64.1038 56.9674 64.6929C57.5568 65.2824 57.5596 66.2408 56.9703 66.83C56.675 67.1253 56.2883 67.2736 55.9018 67.2736Z" fill="#E29D7B"/>
<path d="M16.382 68.8363C15.9975 68.8363 15.6131 68.6898 15.3191 68.3957L15.3135 68.39C14.724 67.8006 14.724 66.8453 15.3135 66.2556C15.9027 65.6666 16.8582 65.6666 17.4477 66.2556C18.0371 66.8451 18.0398 67.8035 17.4506 68.3928C17.1551 68.6881 16.7684 68.8363 16.382 68.8363Z" fill="#E29D7B"/>
<path d="M71.585 62.6005C70.7516 62.6005 70.076 61.9279 70.076 61.0945V61.0888C70.076 60.2552 70.7516 59.5798 71.585 59.5798C72.4184 59.5798 73.0939 60.2554 73.0939 61.0888C73.0939 61.9222 72.4184 62.6005 71.585 62.6005Z" fill="#E29D7B"/>
<path d="M65.5522 68.3403C65.1719 68.3403 64.7918 68.1969 64.4986 67.9088L64.4928 67.9032C63.8984 67.3188 63.8902 66.3635 64.4744 65.769C65.0586 65.1747 66.0141 65.1663 66.6086 65.7506C67.2029 66.335 67.2141 67.2932 66.6297 67.8876C66.3336 68.1887 65.9428 68.3403 65.5522 68.3403Z" fill="#E29D7B"/>
</g>
<defs>
<clipPath id="clip0">
<rect width="100" height="100" rx="15" fill="white"/>
</clipPath>
</defs>
</svg>
