<svg width="100" height="100" viewBox="0 0 100 100" fill="none" xmlns="http://www.w3.org/2000/svg">
<g clip-path="url(#clip0)">
<path d="M80.4337 97.8256C86.4366 97.8256 91.303 92.9592 91.303 86.9562C91.303 80.9533 86.4366 76.0869 80.4337 76.0869C74.4307 76.0869 69.5643 80.9533 69.5643 86.9562C69.5643 92.9592 74.4307 97.8256 80.4337 97.8256Z" fill="#455A64"/>
<path d="M36.9559 97.8256C42.9589 97.8256 47.8252 92.9592 47.8252 86.9562C47.8252 80.9533 42.9589 76.0869 36.9559 76.0869C30.9529 76.0869 26.0866 80.9533 26.0866 86.9562C26.0866 92.9592 30.9529 97.8256 36.9559 97.8256Z" fill="#455A64"/>
<path d="M99.455 15.9528C99.0421 15.4853 98.4483 15.2177 97.8246 15.2181H19.5649C18.3643 15.2179 17.3908 16.1909 17.3906 17.3915C17.3906 17.5376 17.4052 17.6835 17.4346 17.8268L26.1302 61.3044C26.3368 62.3166 27.2274 63.0436 28.2605 63.0434C28.3561 63.0497 28.4519 63.0497 28.5475 63.0434L93.7639 54.3478C94.7436 54.217 95.5117 53.4417 95.6333 52.4608L99.981 17.6786C100.064 17.0544 99.8722 16.4248 99.455 15.9528Z" fill="#FFC107"/>
<path d="M36.9559 54.3478C35.8933 54.3474 34.9868 53.5787 34.8125 52.5306L30.4648 26.444C30.3036 25.2542 31.1374 24.1592 32.3272 23.998C33.4664 23.8435 34.529 24.603 34.7518 25.7311L39.0995 51.8177C39.2957 53.0013 38.496 54.1202 37.3125 54.3177C37.1947 54.3379 37.0755 54.3481 36.9559 54.3478Z" fill="#FAFAFA"/>
<path d="M47.8254 52.1739C46.6972 52.1784 45.753 51.3194 45.6515 50.1956L43.4775 26.283C43.365 25.0877 44.2428 24.0275 45.4383 23.915C45.4442 23.9144 45.4499 23.914 45.4558 23.9134C46.6515 23.8052 47.7085 24.687 47.8167 25.8827L49.9906 49.7956C50.0986 50.9913 49.217 52.0482 48.0213 52.1564L47.8254 52.1739Z" fill="#FAFAFA"/>
<path d="M58.6948 50C57.4942 50 56.5208 49.0267 56.5208 47.8261V26.0874C56.5208 24.8868 57.4942 23.9135 58.6948 23.9135C59.8954 23.9135 60.8687 24.8868 60.8687 26.0874V47.8263C60.8687 49.0269 59.8954 50 58.6948 50Z" fill="#FAFAFA"/>
<path d="M69.5641 47.8263H69.3206C68.1267 47.6999 67.2614 46.6296 67.3877 45.4355C67.3885 45.4281 67.3893 45.4206 67.3902 45.4133L69.5641 25.8483C69.7051 24.6526 70.7794 23.7914 71.9771 23.9137C73.1704 24.0457 74.0308 25.12 73.899 26.3134V26.3136L71.725 45.8785C71.6093 46.985 70.6769 47.8255 69.5641 47.8263Z" fill="#FAFAFA"/>
<path d="M80.4337 45.6522C79.2331 45.6518 78.2601 44.6782 78.2603 43.4776C78.2603 43.3005 78.2821 43.124 78.3249 42.9522L82.6726 25.5613C82.9361 24.39 84.0994 23.6541 85.2707 23.9176C86.4419 24.1811 87.1779 25.3444 86.9144 26.5157C86.907 26.5485 86.8989 26.5811 86.8899 26.6135L82.5422 44.0045C82.3009 44.9725 81.4313 45.652 80.4337 45.6522Z" fill="#FAFAFA"/>
<path d="M89.129 71.739H38.9515C31.7048 71.7223 25.469 66.6114 24.03 59.5087L13.4346 6.52258H2.17395C0.973355 6.52258 0 5.54922 0 4.34863C0 3.14804 0.973355 2.17468 2.17395 2.17468H15.2172C16.2505 2.17448 17.1409 2.90144 17.3476 3.91372L28.2952 58.6521C29.3213 63.7259 33.775 67.3783 38.9515 67.3911H89.129C90.3296 67.3911 91.303 68.3644 91.303 69.565C91.303 70.7656 90.3296 71.739 89.129 71.739Z" fill="#455A64"/>
</g>
<defs>
<clipPath id="clip0">
<rect width="100" height="100" rx="15" fill="white"/>
</clipPath>
</defs>
</svg>
