<svg width="100" height="114" viewBox="0 0 100 114" fill="none" xmlns="http://www.w3.org/2000/svg">
<path d="M46.0015 72.3465C46.1926 74.1945 47.7522 75.5702 49.5705 75.5702C49.694 75.5702 49.8186 75.5639 49.9441 75.551C51.9175 75.3469 53.3521 73.5819 53.1481 71.6084L51.4917 55.5775C51.2877 53.6036 49.523 52.1699 47.5491 52.3735C45.5757 52.5776 44.1411 54.3426 44.3451 56.3161L46.0015 72.3465Z" fill="#FFC107"/>
<path d="M68.4835 75.551C68.609 75.5639 68.7335 75.5702 68.8571 75.5702C70.6749 75.5702 72.2349 74.1945 72.4261 72.3465L74.0824 56.3156C74.2865 54.3417 72.8519 52.5766 70.8784 52.373C68.9045 52.1723 67.1394 53.6036 66.9358 55.577L65.2795 71.6079C65.075 73.5819 66.5095 75.3469 68.4835 75.551Z" fill="#FFC107"/>
<path d="M40.6669 91.166C34.5353 91.166 29.5471 96.1542 29.5471 102.286C29.5471 108.419 34.5353 113.409 40.6669 113.409C46.7985 113.409 51.7872 108.419 51.7872 102.286C51.7872 96.1542 46.7985 91.166 40.6669 91.166ZM40.6669 106.223C38.4971 106.223 36.732 104.457 36.732 102.285C36.732 100.116 38.4971 98.3504 40.6669 98.3504C42.8368 98.3504 44.6023 100.116 44.6023 102.285C44.6023 104.457 42.8368 106.223 40.6669 106.223Z" fill="#FFC107"/>
<path d="M77.7606 91.166C71.629 91.166 66.6403 96.1542 66.6403 102.286C66.6403 108.419 71.629 113.409 77.7606 113.409C83.8927 113.409 88.8819 108.419 88.8819 102.286C88.8819 96.1542 83.8927 91.166 77.7606 91.166ZM77.7606 106.223C75.5908 106.223 73.8252 104.457 73.8252 102.285C73.8252 100.116 75.5908 98.3504 77.7606 98.3504C79.9309 98.3504 81.697 100.116 81.697 102.285C81.697 104.457 79.9309 106.223 77.7606 106.223Z" fill="#FFC107"/>
<path d="M99.2492 40.3894C98.569 39.5095 97.5195 38.9941 96.4073 38.9941H24.8003L21.7937 27.4308C21.3817 25.8477 19.9524 24.7427 18.3167 24.7427H3.59244C1.60846 24.7427 0 26.3511 0 28.3351C0 30.3191 1.60846 31.9276 3.59244 31.9276H15.539L18.5188 43.386C18.5351 43.4579 18.5538 43.5292 18.5744 43.5997L29.663 86.2405C30.075 87.8236 31.5043 88.9286 33.1401 88.9286H85.2899C86.9256 88.9286 88.355 87.8236 88.7669 86.2405L99.8848 43.4904C100.164 42.4146 99.9293 41.2689 99.2492 40.3894ZM82.5117 81.7442H35.9173L26.6684 46.179H91.7606L82.5117 81.7442Z" fill="#FFC107"/>
<path d="M44.3576 18.8094L65.3973 18.8104L59.9042 24.304C58.5013 25.7069 58.5013 27.9817 59.9042 29.3842C60.6055 30.0854 61.5252 30.4365 62.4443 30.4365C63.3635 30.4365 64.2832 30.0859 64.9844 29.3842L76.6062 17.7624C78.0092 16.3594 78.0092 14.0847 76.6062 12.6822L64.9763 1.05223C63.5733 -0.350742 61.2986 -0.350742 59.8956 1.05223C58.4927 2.4552 58.4927 4.72993 59.8956 6.1329L65.3887 11.626L44.3576 11.625C42.3736 11.625 40.7651 13.2335 40.7651 15.2175C40.7656 17.201 42.3736 18.8094 44.3576 18.8094Z" fill="#FFC107"/>
</svg>
