<svg width="100" height="100" viewBox="0 0 100 100" fill="none" xmlns="http://www.w3.org/2000/svg">
<g clip-path="url(#clip0)">
<path fill-rule="evenodd" clip-rule="evenodd" d="M25.3863 44.5833H-5.34058e-05V53.4022C-5.34058e-05 55.5827 1.77944 57.3635 3.95815 57.3635H13.0896L18.5365 60.1149L25.3865 57.3635V44.5833H25.3863Z" fill="#FFE07D"/>
<path fill-rule="evenodd" clip-rule="evenodd" d="M21.4282 31.7858H3.95823C1.77951 31.7858 2.28882e-05 33.5666 2.28882e-05 35.7471V42.3H25.3864V35.7471C25.3864 33.5666 23.6069 31.7858 21.4282 31.7858Z" fill="#FFE07D"/>
<path fill-rule="evenodd" clip-rule="evenodd" d="M25.3864 40.325H2.28882e-05V46.5525H25.3864V40.325Z" fill="#FF8086"/>
<path fill-rule="evenodd" clip-rule="evenodd" d="M5.29868 40.3251H2.04771H5.34058e-05V35.7472C5.34058e-05 34.2573 0.832867 32.956 2.04771 32.2823C2.61802 31.9685 3.26822 31.7856 3.95845 31.7856H9.25708C7.07837 31.7856 5.29888 33.5665 5.29888 35.747V40.3251H5.29868Z" fill="#FFC269"/>
<path fill-rule="evenodd" clip-rule="evenodd" d="M5.29858 46.5525H2.04761H-4.57764e-05V44.5832V42.3V40.325H2.04761H5.29858V42.3V44.5832V46.5525Z" fill="#F76672"/>
<path fill-rule="evenodd" clip-rule="evenodd" d="M5.29864 46.5526V53.4024C5.29864 55.5829 7.07813 57.3638 9.25684 57.3638H3.95822C3.26818 57.3638 2.61799 57.1868 2.04748 56.8729C0.832639 56.1936 -0.000167847 54.8923 -0.000167847 53.4024V46.5526H2.04748H5.29864Z" fill="#FFC269"/>
<path fill-rule="evenodd" clip-rule="evenodd" d="M25.3862 57.3637H13.0893V63.0204C13.0893 64.3789 14.2015 65.4862 15.5532 65.4862H55.5903C55.5903 61.9301 55.5903 60.1206 52.8698 60.1206L47.4515 60.1149C44.0407 60.1092 41.805 59.2358 40.556 57.3635H25.3862V57.3637Z" fill="#6F6571"/>
<path fill-rule="evenodd" clip-rule="evenodd" d="M50.7613 65.4861H15.5535C13.4888 69.0822 11.8291 73.4033 13.2607 81.6685C15.6562 73.5173 39.9875 76.771 42.4855 86.1779H69.332C70.3472 83.8775 71.3054 81.6056 72.1439 79.3111H64.5754C49.2672 73.5343 54.1892 76.1087 50.7613 65.4861Z" fill="#FFE07D"/>
<path fill-rule="evenodd" clip-rule="evenodd" d="M52.9343 43.3902C52.4095 46.1529 51.6966 48.8758 50.8982 51.1932L43.1589 54.2256L34.5293 51.1932C34.8316 34.8623 40.9343 27.0308 46.1246 24.4965C47.9953 23.072 49.9117 22.5355 49.9117 22.5355C49.9117 22.5355 52.4326 26.5685 52.5638 26.5685C53.5334 28.8746 53.8984 31.8828 53.8357 35.1306L52.9343 43.3902Z" fill="#ECEAEC"/>
<path fill-rule="evenodd" clip-rule="evenodd" d="M34.529 51.1931H50.8981C54.6683 51.6041 59.3052 54.4753 59.3052 63.3685V72.6898L55.5903 74.9025L50.7614 72.6898V65.4861C50.7614 61.93 50.7614 60.1205 48.0409 60.1205L42.6225 60.1148C39.2118 60.1091 36.9761 59.2357 35.727 57.3634C34.763 55.9195 34.3923 53.8816 34.529 51.1931Z" fill="#FF8086"/>
<path fill-rule="evenodd" clip-rule="evenodd" d="M34.5291 51.193C34.8315 34.8622 40.9342 27.0307 46.1244 24.4963C46.8944 25.0385 47.75 25.4838 48.691 25.8149C44.094 29.2911 39.4856 37.0598 39.2233 51.193H34.5291Z" fill="#DAD8DB"/>
<path fill-rule="evenodd" clip-rule="evenodd" d="M34.5292 51.1931H39.2231C39.0862 53.8816 39.4569 55.9195 40.4208 57.3636C41.2079 58.5453 42.3942 59.5441 44.0198 60.115H42.6223C39.2116 60.1093 36.9758 59.2359 35.7268 57.3636C34.7631 55.9195 34.3924 53.8816 34.5292 51.1931Z" fill="#F76672"/>
<path fill-rule="evenodd" clip-rule="evenodd" d="M42.4856 86.1779C42.4856 77.7357 35.7954 71.0115 27.5424 71.0115C20.8293 71.0115 15.1487 75.4638 13.2608 81.6685C12.8729 82.9414 12.6448 84.2943 12.6049 85.6984C12.5877 86.2464 12.9643 86.1779 13.4776 86.1779C23.145 86.1779 32.8182 86.1722 42.4856 86.1779Z" fill="#FF8086"/>
<path fill-rule="evenodd" clip-rule="evenodd" d="M38.7269 86.178H15.9812C16.3062 92.3084 21.274 97.1833 27.3541 97.1833C33.4342 97.1833 38.4019 92.3084 38.7269 86.178Z" fill="#6F6571"/>
<path fill-rule="evenodd" clip-rule="evenodd" d="M96.4867 83.752L76.9179 88.2557C78.1613 93.6613 83.5511 97.0404 88.9523 95.7961C94.3591 94.5518 97.73 89.1576 96.4867 83.752Z" fill="#6F6571"/>
<path fill-rule="evenodd" clip-rule="evenodd" d="M97.9523 78.2666C95.1861 74.2424 90.3838 71.9078 85.3646 72.4102C76.5127 74.2824 73.6324 79.5738 73.0564 86.1725C73.0678 87.0686 73.1648 87.9705 73.3588 88.8725C73.4158 89.1236 73.5812 89.0209 73.8551 88.958L76.918 88.2559L96.4867 83.7522L97.9525 83.4154L100 82.9416C99.6064 81.2178 98.8992 79.6424 97.9523 78.2666Z" fill="#ECEAEC"/>
<path fill-rule="evenodd" clip-rule="evenodd" d="M85.3818 72.3872L77.4768 45.0341L73.9178 43.4415L69.9367 45.0341C75.1668 59.5327 73.7068 69.6531 70.1762 79.3113C69.332 81.606 68.3738 83.8777 67.3643 86.1781H73.0508L85.3818 72.3872Z" fill="#FF8086"/>
<path fill-rule="evenodd" clip-rule="evenodd" d="M60.9023 14.3644L51.6283 12.3894C50.6873 12.475 47.9951 14.7355 47.9951 16.1511L49.9685 26.1859C50.7898 26.4314 51.6625 26.5683 52.5637 26.5683C57.5029 26.5683 61.5068 22.5556 61.5068 17.6123C61.5068 16.465 61.2959 15.3689 60.9023 14.3644Z" fill="#FFECE4"/>
<path fill-rule="evenodd" clip-rule="evenodd" d="M63.8967 14.3646C63.8967 7.98296 58.8434 2.81714 52.6038 2.81714C46.3641 2.81714 41.3108 7.98296 41.3108 14.3646C41.3108 18.5771 43.0219 22.3216 46.1247 24.4964C47.2311 25.2785 48.5202 25.855 49.9688 26.1861V16.1511C49.9688 14.7355 50.6874 14.4501 51.6286 14.3644H60.9024H63.8967V14.3646Z" fill="#FF8086"/>
<path fill-rule="evenodd" clip-rule="evenodd" d="M58.5126 4.52378C56.7958 3.43921 54.771 2.81714 52.6038 2.81714C46.3641 2.81714 41.3108 7.98296 41.3108 14.3646C41.3108 18.5771 43.0219 22.3216 46.1247 24.4964C46.9118 25.0501 47.7844 25.5011 48.7426 25.8322C46.4499 23.5089 45.2065 20.1755 45.2065 16.4994C45.2065 9.83237 50.4936 4.42671 57.0128 4.42671C57.5202 4.42671 58.0221 4.45522 58.5126 4.52378Z" fill="#F76672"/>
<path fill-rule="evenodd" clip-rule="evenodd" d="M59.3053 72.6897H50.7613V78.0725C50.7613 79.2256 51.3887 79.3112 52.3127 79.3112H64.5752C64.8207 73.9112 61.5525 72.6897 59.3053 72.6897Z" fill="#6F6571"/>
<path fill-rule="evenodd" clip-rule="evenodd" d="M70.1762 79.3113C73.7067 69.6533 75.1668 59.5328 69.9367 45.0342H72.8684C72.8797 45.0342 72.8912 45.0342 72.9025 45.0342H73.9576C79.1877 59.5328 77.7334 69.6531 74.1973 79.3113C73.3588 81.6061 72.4006 83.8777 71.3854 86.1781H69.332H67.3643C68.3738 83.8777 69.332 81.6059 70.1762 79.3113Z" fill="#F76672"/>
<path fill-rule="evenodd" clip-rule="evenodd" d="M73.0564 86.1723L85.3646 72.41C86.6364 72.2844 87.897 72.3358 89.1118 72.5584L77.2827 85.784C77.2941 86.5545 77.3683 87.3365 77.5165 88.1186L76.9177 88.2555L73.8548 88.9576C73.581 89.0203 73.4155 89.1233 73.3585 88.8721C73.1648 87.9703 73.0679 87.0684 73.0564 86.1723Z" fill="#DAD8DB"/>
<path fill-rule="evenodd" clip-rule="evenodd" d="M15.5535 65.4861H50.7614V68.5855H21.833C19.4776 68.5855 18.3596 69.6015 17.4412 71.6623C16.6485 73.449 16.6313 74.0312 16.2721 76.1888C14.9203 77.7585 13.8823 79.6195 13.2606 81.6685C11.8291 73.4031 13.4889 69.0822 15.5535 65.4861Z" fill="#FFC269"/>
<path fill-rule="evenodd" clip-rule="evenodd" d="M16.2723 76.1886C19.01 73.0091 23.0424 71.0115 27.5424 71.0115C28.6717 71.0115 29.7668 71.1371 30.8219 71.371C24.086 72.8951 19.3748 78.8429 19.1696 85.6984C19.1582 86.0751 19.3293 86.1607 19.603 86.1779H15.9813H13.4774C12.9641 86.1779 12.5875 86.2464 12.6047 85.6984C12.6446 84.2943 12.8727 82.9414 13.2606 81.6685C13.2719 81.6285 13.2834 81.5943 13.2948 81.5601C13.2948 81.5601 13.2948 81.5601 13.2948 81.5544C13.9223 79.5507 14.9432 77.7298 16.2723 76.1886Z" fill="#F76672"/>
<path fill-rule="evenodd" clip-rule="evenodd" d="M77.5167 88.1185L96.4868 83.752C96.6977 84.648 96.7719 85.55 96.7378 86.4291L81.6805 89.8939L81.0874 90.0308C81.6463 92.4853 83.0665 94.523 84.9544 95.8988C81.1045 95.2195 77.8477 92.3084 76.918 88.2557L77.5167 88.1185Z" fill="#5D5360"/>
<path fill-rule="evenodd" clip-rule="evenodd" d="M19.6032 86.178H38.7272C38.6645 87.3767 38.4192 88.5298 38.0256 89.6085H24.7022H21.0805C21.2231 92.2913 22.2496 94.7286 23.8696 96.6294C19.4721 95.1853 16.2383 91.0812 15.9817 86.1779H19.6032V86.178Z" fill="#5D5360"/>
<path fill-rule="evenodd" clip-rule="evenodd" d="M13.0897 63.0204V57.3638H20.818V63.0204C20.818 64.379 21.9301 65.4862 23.2819 65.4862H15.5535C14.2018 65.4864 13.0897 64.379 13.0897 63.0204Z" fill="#5D5360"/>
<path fill-rule="evenodd" clip-rule="evenodd" d="M61.4613 16.6534H53.8414C52.9004 16.739 52.1816 17.0302 52.1816 18.4458V26.557C51.4174 26.5228 50.676 26.3972 49.9687 26.1859V16.1511C49.9687 14.7355 50.6873 14.4501 51.6285 14.3644H60.9023C61.1818 15.0837 61.3758 15.8542 61.4613 16.6534Z" fill="#FFDDCE"/>
<path fill-rule="evenodd" clip-rule="evenodd" d="M79.1251 36.4209L68.4538 39.9484C67.929 40.4164 68.5221 45.1884 68.8759 45.0343H77.4768H81.2811V37.18C81.2811 35.6332 80.4768 35.9755 79.1251 36.4209Z" fill="#FFE07D"/>
<path fill-rule="evenodd" clip-rule="evenodd" d="M63.4803 45.0341H64.3758H68.8758C71.7733 45.0341 71.8588 40.2279 68.4537 39.9482L63.4803 39.5486L62.1457 42.3742L63.4803 45.0341Z" fill="#FFECE4"/>
<path fill-rule="evenodd" clip-rule="evenodd" d="M53.8355 35.1306L52.0504 33.595C47.5789 29.7421 41.9265 36.2437 47.9039 40.1251L52.9343 43.3902L55.4668 45.0341H63.4802V39.5486L58.5011 39.1433L53.8355 35.1306Z" fill="#FF8086"/>
<path fill-rule="evenodd" clip-rule="evenodd" d="M63.4803 45.0343V42.3743H64.5469H65.1229H66.024H70.524C70.6951 42.3743 70.8549 42.363 71.0088 42.3286C71.1742 43.6528 70.427 45.0343 68.8756 45.0343H64.3756H63.4803Z" fill="#FFDDCE"/>
<path fill-rule="evenodd" clip-rule="evenodd" d="M47.9039 40.1253C44.2878 37.7736 44.9267 34.4687 46.9855 33.0759C46.8201 34.5029 47.4988 36.1412 49.5521 37.4712L53.4705 40.0113L54.5769 40.7363L57.1093 42.3746H63.4802V45.0345H55.4667L52.9343 43.3906L47.9039 40.1253Z" fill="#F76672"/>
<path fill-rule="evenodd" clip-rule="evenodd" d="M68.4537 39.9483L72.7484 38.5327C74.1857 40.0739 74.8816 43.0763 73.9576 45.0343H69.9367H68.8758C70.4271 45.0343 71.1742 43.6528 71.009 42.3286C70.8607 41.1813 70.0336 40.0796 68.4537 39.9483Z" fill="#FFC269"/>
</g>
<defs>
<clipPath id="clip0">
<rect width="100" height="100" fill="white" transform="matrix(-1 0 0 1 100 0)"/>
</clipPath>
</defs>
</svg>
