<svg width="100" height="108" viewBox="0 0 100 108" fill="none" xmlns="http://www.w3.org/2000/svg">
<path d="M47.9556 89.2823H7.14252C3.19784 89.2823 0.000204086 86.0845 0.000204086 82.14V74.9973H54.8162L47.9556 89.2823Z" fill="#D3DCFB"/>
<path d="M92.8608 32.1417V62.1486V82.1396H7.14252C3.19784 82.1396 0.000204086 78.9418 0.000204086 74.9971V32.1417L50.0019 14.2851L92.8608 32.1417Z" fill="#EBF5FC"/>
<path d="M12.6135 46.4269H8.81909C7.8946 46.4269 7.14505 45.6773 7.14505 44.7528V40.9584C7.14505 40.0339 7.8946 39.2844 8.81909 39.2844H12.6135C13.538 39.2844 14.2876 40.0339 14.2876 40.9584V44.7528C14.2876 45.6773 13.538 46.4269 12.6135 46.4269Z" fill="#3C58A0"/>
<path d="M26.8988 46.4271H23.1044C22.1799 46.4271 21.4303 45.6775 21.4303 44.753V40.9586C21.4303 40.0341 22.1799 39.2845 23.1044 39.2845H26.8988C27.8233 39.2845 28.5729 40.0341 28.5729 40.9586V44.753C28.5729 45.6775 27.8233 46.4271 26.8988 46.4271Z" fill="#3C58A0"/>
<path d="M41.1839 46.4271H37.3894C36.4649 46.4271 35.7154 45.6775 35.7154 44.753V40.9586C35.7154 40.0341 36.4649 39.2845 37.3894 39.2845H41.1839C42.1084 39.2845 42.8579 40.0341 42.8579 40.9586V44.753C42.8579 45.6775 42.1086 46.4271 41.1839 46.4271Z" fill="#3C58A0"/>
<path d="M55.4691 46.4271H51.6747C50.7502 46.4271 50.0007 45.6775 50.0007 44.753V40.9586C50.0007 40.0341 50.7502 39.2845 51.6747 39.2845H55.4691C56.3936 39.2845 57.1432 40.0341 57.1432 40.9586V44.753C57.1432 45.6775 56.3936 46.4271 55.4691 46.4271Z" fill="#3C58A0"/>
<path d="M69.7519 46.4271H65.9575C65.033 46.4271 64.2834 45.6775 64.2834 44.753V40.9586C64.2834 40.0341 65.033 39.2845 65.9575 39.2845H69.7519C70.6764 39.2845 71.4259 40.0341 71.4259 40.9586V44.753C71.4259 45.6775 70.6766 46.4271 69.7519 46.4271Z" fill="#3C58A0"/>
<path d="M84.0372 46.4271H80.2427C79.3182 46.4271 78.5687 45.6775 78.5687 44.753V40.9586C78.5687 40.0341 79.3182 39.2845 80.2427 39.2845H84.0372C84.9617 39.2845 85.7112 40.0341 85.7112 40.9586V44.753C85.7112 45.6775 84.9617 46.4271 84.0372 46.4271Z" fill="#3C58A0"/>
<path d="M12.6136 60.7122H8.81912C7.89463 60.7122 7.14507 59.9626 7.14507 59.0381V55.2437C7.14507 54.3192 7.89463 53.5696 8.81912 53.5696H12.6136C13.538 53.5696 14.2876 54.3192 14.2876 55.2437V59.0381C14.2876 59.9628 13.538 60.7122 12.6136 60.7122Z" fill="#3C58A0"/>
<path d="M26.8988 60.7122H23.1044C22.1799 60.7122 21.4303 59.9626 21.4303 59.0381V55.2437C21.4303 54.3192 22.1799 53.5696 23.1044 53.5696H26.8988C27.8233 53.5696 28.5729 54.3192 28.5729 55.2437V59.0381C28.5729 59.9628 27.8233 60.7122 26.8988 60.7122Z" fill="#3C58A0"/>
<path d="M41.1839 60.7122H37.3894C36.4649 60.7122 35.7154 59.9626 35.7154 59.0381V55.2437C35.7154 54.3192 36.4649 53.5696 37.3894 53.5696H41.1839C42.1084 53.5696 42.8579 54.3192 42.8579 55.2437V59.0381C42.8579 59.9628 42.1086 60.7122 41.1839 60.7122Z" fill="#3C58A0"/>
<path d="M57.1432 60.7122V55.3552C57.1432 54.369 56.3438 53.5696 55.3576 53.5696H51.7862C50.8 53.5696 50.0007 54.369 50.0007 55.3552V58.9266C50.0007 59.9128 50.8002 60.7122 51.7862 60.7122H57.1432Z" fill="#3C58A0"/>
<path d="M12.6136 74.9974H8.81912C7.89463 74.9974 7.14507 74.2479 7.14507 73.3234V69.529C7.14507 68.6045 7.89463 67.8549 8.81912 67.8549H12.6136C13.538 67.8549 14.2876 68.6045 14.2876 69.529V73.3234C14.2876 74.2479 13.538 74.9974 12.6136 74.9974Z" fill="#3C58A0"/>
<path d="M26.8988 74.9974H23.1044C22.1799 74.9974 21.4303 74.2479 21.4303 73.3234V69.529C21.4303 68.6045 22.1799 67.8549 23.1044 67.8549H26.8988C27.8233 67.8549 28.5729 68.6045 28.5729 69.529V73.3234C28.5729 74.2479 27.8233 74.9974 26.8988 74.9974Z" fill="#3C58A0"/>
<path d="M41.1839 74.9974H37.3894C36.4649 74.9974 35.7154 74.2479 35.7154 73.3234V69.529C35.7154 68.6045 36.4649 67.8549 37.3894 67.8549H41.1839C42.1084 67.8549 42.8579 68.6045 42.8579 69.529V73.3234C42.8579 74.2479 42.1086 74.9974 41.1839 74.9974Z" fill="#3C58A0"/>
<path d="M83.9867 39.2842H80.2933C80.0699 39.2842 79.857 39.3281 79.661 39.4053C80.3002 39.6577 80.7531 40.2796 80.7531 41.0087V44.702C80.7531 45.4311 80.3 46.053 79.661 46.3053C79.857 46.3828 80.0699 46.4267 80.2933 46.4267H83.9867C84.9392 46.4267 85.7114 45.6546 85.7114 44.7022V41.0089C85.7112 40.0563 84.939 39.2842 83.9867 39.2842Z" fill="#2A428C"/>
<path d="M69.7014 39.2842H66.0081C65.7846 39.2842 65.5718 39.3281 65.3757 39.4053C66.015 39.6577 66.4678 40.2796 66.4678 41.0087V44.702C66.4678 45.4311 66.0148 46.053 65.3757 46.3053C65.5718 46.3828 65.7846 46.4267 66.0081 46.4267H69.7014C70.654 46.4267 71.4259 45.6546 71.4259 44.7022V41.0089C71.4259 40.0563 70.654 39.2842 69.7014 39.2842Z" fill="#2A428C"/>
<path d="M55.4187 39.2842H51.7253C51.5018 39.2842 51.289 39.3281 51.0929 39.4053C51.7322 39.6577 52.1853 40.2796 52.1853 41.0087V44.702C52.1853 45.4311 51.7322 46.053 51.0929 46.3053C51.289 46.3828 51.5018 46.4267 51.7253 46.4267H55.4187C56.3712 46.4267 57.1434 45.6546 57.1434 44.7022V41.0089C57.1432 40.0563 56.371 39.2842 55.4187 39.2842Z" fill="#2A428C"/>
<path d="M41.1334 39.2842H37.4401C37.2166 39.2842 37.0038 39.3281 36.8077 39.4053C37.447 39.6577 37.9 40.2796 37.9 41.0087V44.702C37.9 45.4311 37.447 46.053 36.8077 46.3053C37.0038 46.3828 37.2166 46.4267 37.4401 46.4267H41.1334C42.086 46.4267 42.8581 45.6546 42.8581 44.7022V41.0089C42.8579 40.0563 42.086 39.2842 41.1334 39.2842Z" fill="#2A428C"/>
<path d="M26.8481 39.2842H23.1548C22.9313 39.2842 22.7185 39.3281 22.5224 39.4053C23.1617 39.6577 23.6145 40.2796 23.6145 41.0087V44.702C23.6145 45.4311 23.1615 46.053 22.5224 46.3053C22.7185 46.3828 22.9313 46.4267 23.1548 46.4267H26.8481C27.8007 46.4267 28.5728 45.6546 28.5728 44.7022V41.0089C28.5728 40.0563 27.8007 39.2842 26.8481 39.2842Z" fill="#2A428C"/>
<path d="M12.5631 39.2842H8.86973C8.64624 39.2842 8.43343 39.3281 8.23736 39.4053C8.87663 39.6577 9.32967 40.2796 9.32967 41.0087V44.702C9.32967 45.4311 8.87663 46.053 8.23736 46.3053C8.43343 46.3828 8.64624 46.4267 8.86973 46.4267H12.5631C13.5156 46.4267 14.2878 45.6546 14.2878 44.7022V41.0089C14.2876 40.0563 13.5154 39.2842 12.5631 39.2842Z" fill="#2A428C"/>
<path d="M12.5631 53.5695H8.86973C8.64624 53.5695 8.43343 53.6134 8.23736 53.6906C8.87663 53.943 9.32967 54.5649 9.32967 55.2939V58.9875C9.32967 59.7166 8.87663 60.3385 8.23736 60.5908C8.43343 60.6682 8.64624 60.7122 8.86973 60.7122H12.5631C13.5156 60.7122 14.2878 59.94 14.2878 58.9877V55.2941C14.2876 54.3416 13.5154 53.5695 12.5631 53.5695Z" fill="#2A428C"/>
<path d="M12.5631 67.8547H8.86973C8.64624 67.8547 8.43343 67.8987 8.23736 67.9759C8.87663 68.2283 9.32967 68.8502 9.32967 69.5792V73.2728C9.32967 74.0018 8.87663 74.6237 8.23736 74.8761C8.43343 74.9535 8.64624 74.9975 8.86973 74.9975H12.5631C13.5156 74.9975 14.2878 74.2253 14.2878 73.273V69.5794C14.2876 68.6267 13.5154 67.8547 12.5631 67.8547Z" fill="#2A428C"/>
<path d="M26.8481 53.5695H23.1548C22.9313 53.5695 22.7185 53.6134 22.5224 53.6906C23.1617 53.943 23.6145 54.5649 23.6145 55.2939V58.9875C23.6145 59.7166 23.1615 60.3385 22.5224 60.5908C22.7185 60.6682 22.9313 60.7122 23.1548 60.7122H26.8481C27.8007 60.7122 28.5728 59.94 28.5728 58.9877V55.2941C28.5728 54.3416 27.8007 53.5695 26.8481 53.5695Z" fill="#2A428C"/>
<path d="M26.8481 67.8547H23.1548C22.9313 67.8547 22.7185 67.8987 22.5224 67.9759C23.1617 68.2283 23.6145 68.8502 23.6145 69.5792V73.2728C23.6145 74.0018 23.1615 74.6237 22.5224 74.8761C22.7185 74.9535 22.9313 74.9975 23.1548 74.9975H26.8481C27.8007 74.9975 28.5728 74.2253 28.5728 73.273V69.5794C28.5728 68.6267 27.8007 67.8547 26.8481 67.8547Z" fill="#2A428C"/>
<path d="M41.1334 53.5695H37.4401C37.2166 53.5695 37.0038 53.6134 36.8077 53.6906C37.447 53.943 37.9 54.5649 37.9 55.2939V58.9875C37.9 59.7166 37.447 60.3385 36.8077 60.5908C37.0038 60.6682 37.2166 60.7122 37.4401 60.7122H41.1334C42.086 60.7122 42.8581 59.94 42.8581 58.9877V55.2941C42.8579 54.3416 42.086 53.5695 41.1334 53.5695Z" fill="#2A428C"/>
<path d="M57.1432 60.712V55.2939C57.1432 54.3414 56.371 53.5695 55.4185 53.5695H51.7251C51.5016 53.5695 51.2888 53.6134 51.0927 53.6906C51.732 53.943 52.1851 54.5649 52.1851 55.2939V58.9875C52.1851 59.7166 51.732 60.3385 51.0927 60.5908C51.2888 60.6682 51.5016 60.7122 51.7251 60.7122H57.1432V60.712Z" fill="#2A428C"/>
<path d="M41.1334 67.8547H37.4401C37.2166 67.8547 37.0038 67.8987 36.8077 67.9759C37.447 68.2283 37.9 68.8502 37.9 69.5792V73.2728C37.9 74.0018 37.447 74.6237 36.8077 74.8761C37.0038 74.9535 37.2166 74.9975 37.4401 74.9975H41.1334C42.086 74.9975 42.8581 74.2253 42.8581 73.273V69.5794C42.8579 68.6267 42.086 67.8547 41.1334 67.8547Z" fill="#2A428C"/>
<path d="M87.8992 30.0745V62.1486V82.1398H92.8608V62.1486V32.1417L87.8992 30.0745Z" fill="#D3DCFB"/>
<path d="M92.8608 32.1417V14.285C92.8608 10.3403 89.663 7.1427 85.7185 7.1427H7.14252C3.19784 7.1427 0.000204086 10.3403 0.000204086 14.285V32.1417H92.8608Z" fill="#FF4155"/>
<path d="M22.5057 15.902H17.8566C16.9635 15.902 16.2399 15.1782 16.2399 14.2853C16.2399 13.3924 16.9638 12.6686 17.8566 12.6686H22.5057C23.3988 12.6686 24.1224 13.3924 24.1224 14.2853C24.1224 15.1782 23.3986 15.902 22.5057 15.902Z" fill="#E80054"/>
<path d="M33.9273 15.9021H29.2783C28.3851 15.9021 27.6615 15.1783 27.6615 14.2854C27.6615 13.3925 28.3854 12.6687 29.2783 12.6687H33.9273C34.8204 12.6687 35.544 13.3925 35.544 14.2854C35.544 15.1783 34.8204 15.9021 33.9273 15.9021Z" fill="#E80054"/>
<path d="M63.578 15.9021H58.9287C58.0356 15.9021 57.312 15.1783 57.312 14.2854C57.312 13.3925 58.0359 12.6687 58.9287 12.6687H63.578C64.4711 12.6687 65.1947 13.3925 65.1947 14.2854C65.1947 15.1783 64.4711 15.9021 63.578 15.9021Z" fill="#E80054"/>
<path d="M74.9998 15.9021H70.3506C69.4575 15.9021 68.7339 15.1783 68.7339 14.2854C68.7339 13.3925 69.4577 12.6687 70.3506 12.6687H74.9998C75.8929 12.6687 76.6165 13.3925 76.6165 14.2854C76.6165 15.1783 75.8927 15.9021 74.9998 15.9021Z" fill="#E80054"/>
<path d="M30.3561 13.3924C30.3561 15.8578 28.3575 17.8564 25.8921 17.8564C23.4266 17.8564 21.428 15.8578 21.428 13.3924V4.46405C21.4278 1.9986 23.4264 0 25.8918 0C28.3573 0 30.3559 1.9986 30.3559 4.46405V13.3924H30.3561Z" fill="#EBF5FC"/>
<path d="M71.4284 13.3924C71.4284 15.8578 69.4298 17.8564 66.9644 17.8564C64.4989 17.8564 62.5001 15.8578 62.5001 13.3924V4.46405C62.5001 1.9986 64.4987 0 66.9642 0C69.4296 0 71.4282 1.9986 71.4282 4.46405V13.3924H71.4284Z" fill="#EBF5FC"/>
<path d="M66.9642 0C66.0476 0 65.1964 0.277055 64.4874 0.75081C65.6854 1.55142 66.4749 2.91514 66.4749 4.46426V13.3924C66.4749 14.9413 65.6854 16.3052 64.4874 17.1058C65.1962 17.5794 66.0476 17.8566 66.9642 17.8566C69.4296 17.8566 71.4282 15.858 71.4282 13.3926V4.46405C71.4284 1.9986 69.4298 0 66.9642 0V0Z" fill="#D3DCFB"/>
<path d="M25.8918 0C24.9753 0 24.124 0.277055 23.4151 0.75081C24.6131 1.55142 25.4026 2.91514 25.4026 4.46426V13.3924C25.4026 14.9413 24.6131 16.3052 23.4151 17.1058C24.1238 17.5794 24.9753 17.8566 25.8918 17.8566C28.3573 17.8566 30.3559 15.858 30.3559 13.3926V4.46405C30.3561 1.9986 28.3575 0 25.8918 0V0Z" fill="#D3DCFB"/>
<path d="M85.7185 7.14252H80.7585C84.7032 7.14252 87.9008 10.3402 87.9008 14.2848V32.1417H92.8606V14.285C92.8608 10.3404 89.663 7.14252 85.7185 7.14252Z" fill="#E80054"/>
<path d="M0 23.3823H92.8608V26.616H0V23.3823Z" fill="#E80054"/>
<path d="M73.2153 107.139C88.0081 107.139 100 95.147 100 80.3542C100 65.5614 88.0081 53.5695 73.2153 53.5695C58.4225 53.5695 46.4305 65.5614 46.4305 80.3542C46.4305 95.147 58.4225 107.139 73.2153 107.139Z" fill="#4FABF7"/>
<path d="M73.2153 99.9964C84.0634 99.9964 92.8575 91.2023 92.8575 80.3542C92.8575 69.5061 84.0634 60.712 73.2153 60.712C62.3672 60.712 53.573 69.5061 53.573 80.3542C53.573 91.2023 62.3672 99.9964 73.2153 99.9964Z" fill="#EBF5FC"/>
<path d="M73.2153 78.3995C72.3222 78.3995 71.5985 77.6757 71.5985 76.7828V67.8545C71.5985 66.9616 72.3224 66.2378 73.2153 66.2378C74.1084 66.2378 74.832 66.9616 74.832 67.8545V76.7828C74.832 77.6757 74.1082 78.3995 73.2153 78.3995Z" fill="#3C58A0"/>
<path d="M82.1436 81.9709H76.7864C75.8933 81.9709 75.1697 81.2471 75.1697 80.3542C75.1697 79.4613 75.8935 78.7375 76.7864 78.7375H82.1436C83.0367 78.7375 83.7603 79.4613 83.7603 80.3542C83.7603 81.2471 83.0365 81.9709 82.1436 81.9709Z" fill="#3C58A0"/>
<path d="M73.2153 53.5695C72.3793 53.5695 71.5527 53.6098 70.7362 53.6848C84.3665 54.9359 95.0417 66.3975 95.0417 80.3542C95.0417 94.3109 84.3663 105.773 70.736 107.024C71.5525 107.099 72.3791 107.139 73.215 107.139C88.0078 107.139 99.9998 95.1469 99.9998 80.3542C99.9998 65.5615 88.008 53.5695 73.2153 53.5695Z" fill="#1886EA"/>
<path d="M73.2153 60.712C72.3761 60.712 71.5494 60.7649 70.7379 60.867C80.4164 62.0851 87.9027 70.3453 87.9027 80.3542C87.9027 90.3631 80.4164 98.6233 70.7379 99.8413C71.5494 99.9435 72.3761 99.9964 73.2153 99.9964C84.0633 99.9964 92.8575 91.2022 92.8575 80.3542C92.8575 69.5062 84.0633 60.712 73.2153 60.712Z" fill="#D3DCFB"/>
<path d="M73.2153 83.9256C75.1877 83.9256 76.7866 82.3266 76.7866 80.3542C76.7866 78.3818 75.1877 76.7828 73.2153 76.7828C71.2428 76.7828 69.6439 78.3818 69.6439 80.3542C69.6439 82.3266 71.2428 83.9256 73.2153 83.9256Z" fill="#FFDD40"/>
</svg>
