<svg width="134" height="50" viewBox="0 0 134 50" fill="none" xmlns="http://www.w3.org/2000/svg">
<path d="M115.007 38.5242L108.068 1.41863L106.79 1.06665L100.87 40.1681L107.012 42.8468L113.597 40.1681C114.472 40.1681 115.14 39.3883 115.007 38.5242Z" fill="#A1A1A1"/>
<path d="M100.87 40.1684L59.2632 42.8471L19.5357 40.1684C18.6614 40.1684 17.9928 39.3886 18.1264 38.5245L23.8988 1.20811C24.0063 0.51298 24.6047 0 25.3081 0H106.642C107.517 0 108.185 0.779781 108.051 1.64394L102.279 38.9603C102.171 39.6554 101.573 40.1684 100.87 40.1684Z" fill="#F2F5FB"/>
<path d="M106.642 0H98.6057C99.4801 0 100.149 0.779781 100.015 1.64394L94.2429 38.9603C94.1355 39.6554 93.5371 40.1681 92.8336 40.1681L97.088 42.8469L100.87 40.1681C101.573 40.1681 102.171 39.6554 102.279 38.9603L108.051 1.64394C108.185 0.779781 107.517 0 106.642 0Z" fill="#E6E8F0"/>
<path d="M90.3167 17.2879H37.2344C36.1246 17.2879 35.2253 16.3884 35.2253 15.2789C35.2253 14.1694 36.1246 13.2698 37.2344 13.2698H90.3167C91.4265 13.2698 92.3257 14.1694 92.3257 15.2789C92.3257 16.3884 91.4262 17.2879 90.3167 17.2879Z" fill="#BED9FD"/>
<path d="M77.7805 28.5243H44.4129C43.3033 28.5243 42.4038 27.6247 42.4038 26.5152C42.4038 25.4057 43.3033 24.5062 44.4129 24.5062H77.7805C78.8903 24.5062 79.7895 25.4057 79.7895 26.5152C79.7895 27.625 78.8903 28.5243 77.7805 28.5243Z" fill="#BED9FD"/>
<path d="M131.201 50.0001H1.93137C0.864695 50.0001 0 49.1354 0 48.0687V41.9652C0 40.8985 0.864695 40.0336 1.93137 40.0336H131.201C132.268 40.0336 133.133 40.8983 133.133 41.9652V48.0687C133.133 49.1354 132.268 50.0001 131.201 50.0001Z" fill="#E59A69"/>
<path d="M131.201 40.0336H123.165C124.232 40.0336 125.097 40.8983 125.097 41.9649V48.0684C125.097 49.1351 124.232 50.0001 123.165 50.0001H131.201C132.268 50.0001 133.133 49.1354 133.133 48.0684V41.9649C133.133 40.8983 132.268 40.0336 131.201 40.0336Z" fill="#D78C57"/>
</svg>
