<svg width="100" height="100" viewBox="0 0 100 100" fill="none" xmlns="http://www.w3.org/2000/svg">
<g clip-path="url(#clip0)">
<path d="M12.5674 69.4133C11.7584 69.4133 11.1025 68.7574 11.1025 67.9485V38.8248C11.1025 38.0158 11.7584 37.36 12.5674 37.36C13.3764 37.36 14.0322 38.0158 14.0322 38.8248V67.9485C14.0322 68.7574 13.3764 69.4133 12.5674 69.4133Z" fill="#86B5A5"/>
<path d="M87.4326 69.4133C86.6236 69.4133 85.9678 68.7574 85.9678 67.9485V38.8248C85.9678 38.0158 86.6236 37.36 87.4326 37.36C88.2416 37.36 88.8975 38.0158 88.8975 38.8248V67.9485C88.8975 68.7574 88.2416 69.4133 87.4326 69.4133Z" fill="#86B5A5"/>
<path d="M77.1328 61.8151C76.3238 61.8151 75.668 61.1592 75.668 60.3503V53.3555C75.668 52.5465 76.3238 51.8907 77.1328 51.8907C77.9418 51.8907 78.5977 52.5465 78.5977 53.3555V60.3503C78.5977 61.1592 77.9418 61.8151 77.1328 61.8151Z" fill="#EAAF47"/>
<path d="M92.7456 74.2072H7.25459C6.69951 74.2072 6.24951 73.7572 6.24951 73.2022V68.9539C6.24951 68.3989 6.69951 67.9489 7.25459 67.9489H92.7458C93.3009 67.9489 93.7509 68.3989 93.7509 68.9539V73.2022C93.7509 73.7572 93.3009 74.2072 92.7456 74.2072Z" fill="#686D6D"/>
<path d="M92.7454 74.2073H84.5802V67.9487H92.7454C93.3005 67.9487 93.7505 68.3987 93.7505 68.9537V73.202C93.7507 73.7573 93.3007 74.2073 92.7454 74.2073Z" fill="#555656"/>
<path d="M81.4282 67.9485H61.0569V61.3554C61.0569 60.8003 61.5069 60.3503 62.062 60.3503H80.4229C80.978 60.3503 81.428 60.8003 81.428 61.3554V67.9485H81.4282Z" fill="#FFC853"/>
<path d="M81.4282 67.9485H75.4576V60.3503H80.4231C80.9782 60.3503 81.4282 60.8003 81.4282 61.3554V67.9485Z" fill="#EAAF47"/>
<path d="M90.9734 100H9.02656C8.47148 100 8.02148 99.55 8.02148 98.995V74.2073H91.9787V98.995C91.9787 99.55 91.5285 100 90.9734 100Z" fill="#F6E5CB"/>
<path d="M90.9734 100H84.5804V74.2073H91.9787V98.995C91.9787 99.55 91.5285 100 90.9734 100Z" fill="#ECD4B2"/>
<path d="M47.0642 67.9488H21.4757V49.2122C21.4757 48.6572 21.9257 48.2072 22.4808 48.2072H46.0589C46.614 48.2072 47.064 48.6572 47.064 49.2122L47.0642 67.9488Z" fill="#9FE0FE"/>
<path d="M47.0643 67.9488H39.7786V48.2072H46.0592C46.6143 48.2072 47.0643 48.6572 47.0643 49.2122V67.9488Z" fill="#7ED0ED"/>
<path d="M41.7303 0H24.4461L21.4824 32.1111C21.4824 37.2934 25.7502 41.4945 31.0146 41.4945C36.2791 41.4945 40.5467 37.2936 40.5469 32.1111H40.5477L41.7303 0Z" fill="#D7DCDD"/>
<path d="M75.4587 0H58.1746L59.3572 32.1113H59.358C59.358 37.2936 63.5591 41.4947 68.7414 41.4947C73.9238 41.4947 78.1248 37.2936 78.1248 32.1113L75.4587 0Z" fill="#D7DCDD"/>
<path d="M24.4461 0H11.1222C10.6511 0 10.2431 0.327344 10.141 0.787109L3.18298 32.1113H3.18396C3.18396 37.2936 7.28025 41.4947 12.3334 41.4947C17.3863 41.4947 21.4826 37.2938 21.4828 32.1113L24.4461 0Z" fill="#86B5A5"/>
<path d="M59.3376 32.1113L58.1755 0H41.7302L40.5476 32.1113H40.5697C40.5697 37.2936 44.7708 41.4947 49.9531 41.4947C55.1353 41.4947 59.3365 37.2938 59.3365 32.1113H59.3376Z" fill="#86B5A5"/>
<path d="M96.8169 32.1113L89.8589 0.787109C89.7567 0.327344 89.3489 0 88.8778 0H75.4575L78.0497 32.1111H78.0491C78.0491 37.2936 82.2503 41.4945 87.4325 41.4945C92.6147 41.4945 96.8159 37.2936 96.8159 32.1111H96.8169V32.1113Z" fill="#86B5A5"/>
<path d="M79.6481 53.3557H71.267C70.712 53.3557 70.262 52.9057 70.262 52.3506V49.5361C70.262 48.9811 70.712 48.5311 71.267 48.5311H79.6481C80.2032 48.5311 80.6532 48.9811 80.6532 49.5361V52.3506C80.6534 52.9055 80.2032 53.3557 79.6481 53.3557Z" fill="#9FE0FE"/>
<path d="M79.648 53.3556H77.1328V48.5308H79.648C80.2031 48.5308 80.6531 48.9808 80.6531 49.5359V52.3504C80.6533 52.9054 80.2031 53.3556 79.648 53.3556Z" fill="#7ED0ED"/>
</g>
<defs>
<clipPath id="clip0">
<rect width="100" height="100" fill="white"/>
</clipPath>
</defs>
</svg>
