<svg width="66" height="89" viewBox="0 0 66 89" fill="none" xmlns="http://www.w3.org/2000/svg">
<path d="M65.8749 52.3878L65.8122 51.5267C64.8041 38.4033 58.6936 30.1765 53.3029 22.9201C48.3113 16.2008 44.0001 10.3983 44.0001 1.83664C44.0001 1.14914 43.6151 0.520758 43.0046 0.205538C42.3923 -0.1114 41.6565 -0.0594939 41.0997 0.345273C33.0037 6.13886 26.2487 15.9036 23.889 25.2207C22.2508 31.7072 22.0341 38.9994 22.0037 43.8155C14.5271 42.2185 12.8334 31.034 12.8156 30.9123C12.7313 30.3322 12.3769 29.8273 11.8613 29.5516C11.3404 29.2795 10.728 29.2597 10.1998 29.5212C9.80774 29.7109 0.57647 34.4017 0.0393589 53.1326C0.00171812 53.7556 0 54.3787 0 55.0034C0 73.199 14.8045 88.0035 33.0001 88.0035C51.1957 88.0035 66.0002 73.199 66.0002 55.0034C66.0002 54.0904 65.9377 53.2383 65.8749 52.3878ZM33.0001 84.3369C26.9343 84.3369 22.0001 79.0804 22.0001 72.619C22.0001 72.3988 21.9984 72.1767 22.0143 71.9046C22.0877 69.1797 22.6052 67.3195 23.1728 66.0824C24.2363 68.3669 26.1394 70.4669 29.2261 70.4669C30.2394 70.4669 31.0595 69.6469 31.0595 68.6335C31.0595 66.0231 31.1133 63.0118 31.7631 60.2939C32.3415 57.8823 33.7235 55.3202 35.4746 53.2649C36.2534 55.9326 37.7717 58.0917 39.2541 60.1991C41.3758 63.2141 43.5689 66.3311 43.9539 71.6467C43.9771 71.9617 44.0005 72.2786 44.0005 72.6188C44.0001 79.0804 39.0659 84.3369 33.0001 84.3369ZM44.5866 81.9415C46.4896 79.3463 47.6669 76.1385 47.6669 72.619C47.6669 72.1875 47.6401 71.7864 47.5863 71.0363C47.1513 65.0511 44.5498 61.3522 42.2529 58.0884C40.2961 55.3097 38.6077 52.909 38.6077 49.5036C38.6077 48.8071 38.2138 48.1715 37.5907 47.8618C36.9713 47.5502 36.2229 47.6202 35.6697 48.0409C32.1534 50.6978 29.2207 55.1701 28.1967 59.4402C27.6739 61.6299 27.4913 63.9985 27.4269 65.9464C26.1557 64.5786 25.7617 62.0435 25.7583 62.0094C25.676 61.4204 25.3143 60.9065 24.7862 60.6327C24.2616 60.3606 23.6332 60.3534 23.1051 60.6255C22.6431 60.8618 18.5844 63.1893 18.3517 71.7508C18.3355 72.0409 18.3338 72.3309 18.3338 72.6191C18.3338 76.1386 19.5111 79.3465 21.4142 81.9417C10.9875 77.4394 3.66714 67.0636 3.66714 55.0038C3.66714 54.4541 3.66542 53.9063 3.70289 53.2957C4.01794 42.3063 7.53434 36.8565 9.82956 34.4521C11.4301 40.1812 15.6231 47.6704 23.8338 47.6704C24.8472 47.6704 25.6672 46.8503 25.6672 45.837C25.6672 39.7013 25.8051 32.6115 27.4451 26.1196C29.307 18.7647 34.4078 10.8226 40.5649 5.4462C41.5872 13.2988 45.8643 19.0567 50.3601 25.1062C55.7044 32.2999 61.2295 39.7388 62.155 51.7845L62.2178 52.6618C62.275 53.4246 62.3341 54.1855 62.3341 55.0036C62.3336 67.0634 55.0132 77.4392 44.5866 81.9415Z" fill="#262833" fill-opacity="0.75"/>
</svg>
