<svg width="100" height="100" viewBox="0 0 100 100" fill="none" xmlns="http://www.w3.org/2000/svg">
<g opacity="0.65" clip-path="url(#clip0)">
<path d="M77.0829 39.5818H18.7482C15.3022 39.5818 12.498 42.386 12.498 45.8319V49.9986C12.498 64.8656 20.7107 78.3493 33.9276 85.187C34.9486 85.712 36.2068 85.3161 36.7361 84.2911C37.2611 83.2701 36.8652 82.0119 35.8402 81.4826C24.0149 75.3658 16.6647 63.3031 16.6647 49.9984V45.8317C16.6647 44.6817 17.5982 43.7483 18.7482 43.7483H77.0829C78.233 43.7483 79.1664 44.6817 79.1664 45.8317V49.9984C79.1664 63.3029 71.8162 75.3656 59.9868 81.4783C58.9618 82.0074 58.5659 83.2658 59.0909 84.2868C59.4618 85.0034 60.191 85.4159 60.9451 85.4159C61.2701 85.4159 61.5951 85.3409 61.8992 85.1825C75.1204 78.3489 83.3331 64.8695 83.3331 49.9982V45.8315C83.3331 42.386 80.5287 39.5818 77.0829 39.5818Z" fill="#262833"/>
<path d="M95.6791 82.5328C95.354 81.7537 94.5956 81.2452 93.754 81.2452H2.08525C1.24363 81.2452 0.485214 81.7537 0.160206 82.5328C-0.164801 83.3119 0.0143045 84.2078 0.610217 84.8037L5.28122 89.4788C8.03969 92.233 11.698 93.7498 15.594 93.7498H80.2371C84.1331 93.7498 87.7957 92.2332 90.5582 89.4788L95.2292 84.8037C95.825 84.2078 96.0041 83.3119 95.6791 82.5328ZM87.6082 86.5329C85.6415 88.4995 83.0206 89.5829 80.2414 89.5829H15.594C12.8148 89.5829 10.1938 88.4995 8.22719 86.5329L7.11056 85.4162H88.7248L87.6082 86.5329Z" fill="#262833"/>
<path d="M95.9708 49.4194C90.3582 45.811 81.3914 49.7278 80.387 50.1819C79.3411 50.6611 78.8745 51.8945 79.3536 52.9445C79.8327 53.9945 81.062 54.457 82.1162 53.9779C84.1246 53.0654 90.5664 50.9029 93.7164 52.932C95.1374 53.8445 95.8331 55.6155 95.8331 58.3321C95.8331 66.6739 79.0077 71.7158 72.5117 72.9575L71.0366 73.2491C69.9075 73.47 69.1741 74.5657 69.395 75.695C69.5909 76.6867 70.4616 77.3742 71.4366 77.3742C71.57 77.3742 71.7032 77.3617 71.8407 77.3326L73.3033 77.0451C74.3949 76.8367 99.9998 71.8158 99.9998 58.3321C100 54.1404 98.6418 51.1445 95.9708 49.4194Z" fill="#262833"/>
<path d="M64.1368 22.1314C67.5243 17.8979 67.5243 11.2686 64.1368 7.03511C63.4158 6.13509 62.1117 5.98508 61.2076 6.7101C60.3076 7.43101 60.1617 8.73925 60.8826 9.63927C63.0285 12.3184 63.0285 16.8478 60.8785 19.5354C57.4868 23.7689 57.4868 30.3982 60.8785 34.6316C61.291 35.1483 61.8951 35.4151 62.5076 35.4151C62.9617 35.4151 63.4242 35.2651 63.8077 34.9567C64.7077 34.2357 64.8536 32.9232 64.1327 32.0275C61.9826 29.3481 61.9826 24.8189 64.1368 22.1314Z" fill="#262833"/>
<path d="M51.6198 22.1313C55.0115 17.8978 55.0115 11.2686 51.6198 7.03509C50.9031 6.13507 49.5906 5.98917 48.6906 6.71008C47.7906 7.431 47.6447 8.74353 48.3656 9.63925C50.5156 12.3184 50.5156 16.8478 48.3615 19.5354C44.9739 23.7689 44.9739 30.3981 48.3615 34.6316C48.774 35.1482 49.3781 35.4151 49.9906 35.4151C50.4447 35.4151 50.9032 35.265 51.2907 34.9566C52.1907 34.2357 52.3366 32.9275 51.6157 32.0275C49.4697 29.3481 49.4697 24.8189 51.6198 22.1313Z" fill="#262833"/>
<path d="M39.136 22.1355C42.5236 17.902 42.5236 11.2728 39.136 7.03926C38.4194 6.13924 37.111 5.98923 36.2069 6.71425C35.3109 7.43087 35.1652 8.7434 35.8818 9.63932C38.0278 12.3185 38.0278 16.8479 35.8777 19.5354C32.4861 23.7689 32.4861 30.3982 35.8777 34.6317C36.2903 35.1483 36.8944 35.4151 37.5069 35.4151C37.961 35.4151 38.4235 35.2651 38.8069 34.961C39.7069 34.2401 39.8528 32.9276 39.1319 32.0318C36.9819 29.3482 36.9819 24.8231 39.136 22.1355Z" fill="#262833"/>
</g>
<defs>
<clipPath id="clip0">
<rect width="100" height="100" fill="white"/>
</clipPath>
</defs>
</svg>
