<svg width="100" height="100" viewBox="0 0 100 100" fill="none" xmlns="http://www.w3.org/2000/svg">
<g clip-path="url(#clip0)">
<path d="M45.851 30.6428C45.9162 31.5547 46.8291 32.1948 47.709 31.9481C48.1176 31.8334 48.4627 31.5389 48.6414 31.1541C48.8512 30.7024 48.7572 30.2145 48.7033 29.7391C48.4375 27.3869 47.9922 23.4504 53.5846 21.5848C57.1154 20.4035 59.4379 17.8401 60.3008 14.1717C60.9277 11.5067 60.543 9.18362 60.5264 9.08616C60.3904 8.29065 59.6365 7.75589 58.8406 7.89065C58.0445 8.02425 57.5068 8.77894 57.6379 9.57542C57.6861 9.86819 58.7479 16.768 52.6563 18.8063C44.8147 21.4221 45.5248 27.7037 45.7922 30.0684C45.818 30.2967 45.8402 30.4936 45.851 30.6428Z" fill="#262833" fill-opacity="0.75"/>
<path d="M59.6484 22.8644C54.433 24.6053 54.9285 28.9139 55.0912 30.3297C55.1455 30.8021 55.1992 31.2271 55.5545 31.5789C55.8678 31.8889 56.3123 32.0432 56.7504 31.9937C57.1851 31.9447 57.582 31.6973 57.8185 31.3293C58.0875 30.9105 58.056 30.468 58.0017 29.9953C57.798 28.2228 57.8414 26.5564 60.5775 25.6432C65.0756 24.1365 65.5529 19.5967 65.1767 17.4066C65.0404 16.6125 64.2886 16.0805 63.4933 16.2137C62.6982 16.3459 62.1599 17.0994 62.2881 17.8951C62.3519 18.2916 62.8201 21.8019 59.6484 22.8644Z" fill="#262833" fill-opacity="0.75"/>
<path d="M34.8615 30.6482C34.927 31.5174 35.7672 32.1496 36.6207 31.9719C37.0207 31.8887 37.3733 31.6367 37.5821 31.2854C37.8254 30.876 37.7907 30.4486 37.7383 29.9949C37.5346 28.2225 37.5782 26.5561 40.3141 25.6428C44.8121 24.1361 45.2895 19.5963 44.9133 17.4063C44.7764 16.609 44.0203 16.0732 43.2217 16.2106C42.4244 16.3475 41.8891 17.1047 42.026 17.9022C42.053 18.0596 42.6506 21.7705 39.385 22.8643C34.1696 24.6051 34.6651 28.9137 34.8278 30.3295C34.842 30.451 34.8547 30.558 34.8615 30.6482Z" fill="#262833" fill-opacity="0.75"/>
<path d="M97.2729 71.2563H95.1531C95.1916 70.975 95.2109 70.691 95.2109 70.4069C95.2109 67.991 93.8275 65.8188 91.7285 64.7641C91.7283 63.3028 91.2277 61.9567 90.3904 60.886C93.3008 58.8014 95.4279 55.7608 96.4604 52.1424C97.0174 50.2067 96.4891 49.2063 94.5764 48.5748C90.4053 47.1965 86.059 47.4885 82.3006 49.3819C82.2889 49.2602 82.277 49.1387 82.2625 49.017C81.7252 44.3559 79.2879 40.1594 75.399 37.2004C73.7045 35.9117 72.5687 36.0436 71.2082 37.6867C69.0813 40.2559 67.7367 43.2739 67.2781 46.4192C66.1605 45.4606 64.7172 44.8908 63.1736 44.8908C62.376 44.8908 61.5975 45.0385 60.8715 45.3235C59.7002 44.1512 58.1072 43.4791 56.408 43.4791C55.7611 43.4791 55.1168 43.5801 54.5025 43.7752C52.6104 42.1455 49.5596 41.5387 45.4012 41.9703C44.648 42.0508 43.8611 42.1492 43.0559 42.2633C42.9961 42.2373 42.9367 42.2108 42.8754 42.1889C40.3047 41.2858 36.7891 41.1453 33.7 41.8231C29.8273 42.6727 26.8859 44.7219 25.4176 47.5934C25.357 47.711 25.2982 47.8295 25.2391 47.9477C22.3258 49.7422 20.4201 51.8242 19.5643 54.1467C18.3611 54.2569 17.2066 54.7115 16.2598 55.4541C15.1834 56.2069 14.374 57.2733 13.9346 58.4883C10.7549 58.8125 8.26543 61.5035 8.26543 64.7649V64.7658C6.16641 65.8207 4.78301 67.9918 4.78301 70.4067C4.78301 70.6912 4.80254 70.975 4.84102 71.2561H2.72715C1.22344 71.2563 0 72.4799 0 73.9836V78.1082C0 81.8834 3.07129 84.9547 6.84629 84.9547H7.73437V87.0776C7.73437 89.8637 10.0008 92.1301 12.7869 92.1301H87.2133C89.9992 92.1301 92.2658 89.8637 92.2658 87.0776V84.9547H93.1484C96.9266 84.9547 100 81.8834 100 78.1082V73.9836C100 72.4799 98.7766 71.2563 97.2729 71.2563ZM82.2779 52.7766C82.6375 52.5354 83.0076 52.3123 83.3861 52.1131C86.4939 50.4686 90.1346 50.1977 93.6398 51.351C92.7047 54.6156 90.7002 57.2998 87.9584 58.9907C87.367 58.7297 86.7289 58.5557 86.0596 58.4881C85.6209 57.275 84.8141 56.2092 83.7414 55.4557C83.2156 55.043 82.6252 54.7203 81.9984 54.4949C82.1217 53.9252 82.2148 53.3522 82.2779 52.7766ZM73.465 39.5557C73.4914 39.5239 73.516 39.4946 73.5389 39.4674C73.5658 39.4875 73.5947 39.5092 73.6254 39.5326C76.873 42.0039 78.907 45.4916 79.3525 49.3563C79.5281 50.8514 79.4576 52.3447 79.1475 53.8127C78.2156 52.4412 76.7801 51.4869 75.1338 51.1719C74.066 49.3703 72.1695 48.2119 70.0527 48.0973C70.2182 45.0354 71.401 42.0487 73.465 39.5557ZM27.8996 49.1791C27.941 49.0975 27.9848 49.0114 28.0305 48.9194C30.5424 44.0233 38.3312 43.7252 41.857 44.9365C43.6043 45.7043 44.3914 46.9399 44.2439 47.7205C44.1041 48.4619 42.9461 49.3606 40.1426 49.4541C36.9971 49.561 35.4926 50.9463 34.3941 51.9576C34.0428 52.2813 33.7391 52.561 33.4393 52.7471C32.0689 53.5989 30.7248 53.2885 30.0455 53.028C28.9941 52.6242 28.1352 51.8242 27.9082 51.0381C27.5631 49.841 27.5885 49.791 27.8996 49.1791ZM10.2133 67.1426C10.9648 66.9393 11.4258 66.1834 11.2629 65.4221C11.2182 65.2137 11.1957 64.9926 11.1957 64.7653C11.1957 62.9018 12.7143 61.3856 14.5809 61.3856C14.6816 61.3856 14.7936 61.392 14.9229 61.4055C15.7086 61.4877 16.4145 60.9328 16.524 60.1524C16.6551 59.2205 17.1793 58.3774 17.9625 57.8393C17.9914 57.8194 18.0197 57.7985 18.0473 57.7766C18.3123 57.5651 18.6027 57.3979 18.9119 57.2774C18.823 58.9342 19.2102 60.3508 20.0609 61.3969C21.0844 62.6549 22.6752 63.2498 24.54 63.0733C24.9121 63.0381 25.293 62.9821 25.6965 62.9227C27.8191 62.61 30.0141 62.2867 32.0885 64.5713C33.8221 66.4781 36.6719 67.6461 39.9074 67.7764C42.9848 67.8979 45.9795 67.1014 48.1248 65.5848C48.7854 65.1178 48.9424 64.2037 48.4754 63.5432C48.0084 62.8824 47.0943 62.7254 46.4336 63.1926C43.3104 65.4002 36.9506 65.5641 34.2568 62.6014C31.133 59.1606 27.6045 59.6805 25.2695 60.0242C24.9051 60.078 24.5609 60.1287 24.2641 60.1567C23.3805 60.2416 22.7307 60.0362 22.3338 59.5483C21.6963 58.7645 21.6547 57.2658 22.2197 55.4379C22.6314 54.1086 23.5771 52.8438 25.0398 51.6606C25.0568 51.7225 25.0748 51.7862 25.0934 51.8506C25.5768 53.5254 27.0719 55.0246 28.9953 55.7633C31.0158 56.5393 33.1994 56.3463 34.9852 55.236C35.5195 54.9043 35.9564 54.502 36.3789 54.1131C37.3465 53.2219 38.1822 52.4524 40.241 52.3826C45.9412 52.1922 46.9494 49.1823 47.1227 48.2643C47.3449 47.0864 47.0371 45.8897 46.3062 44.8299C49.7525 44.5615 52.1611 45.1791 53.1213 46.5893C54.0605 47.9684 53.7615 50.374 52.301 53.1897C51.5383 54.6608 50.0387 57.7875 49.8701 58.1348C49.5164 58.8625 49.8197 59.7389 50.5475 60.0924C51.275 60.4459 52.1518 60.1426 52.5053 59.4149C52.6762 59.0633 54.1602 55.9684 54.902 54.5381C56.5154 51.428 56.976 48.6096 56.2619 46.4123C56.3107 46.4102 56.3596 46.4092 56.4086 46.4092C57.5652 46.4092 58.6303 46.9905 59.2578 47.9637C59.4711 48.2946 59.8086 48.5258 60.1943 48.6049C60.5801 48.6838 60.9813 48.6049 61.3078 48.3846C61.8549 48.0158 62.5002 47.8209 63.1742 47.8209C64.691 47.8209 66.0316 48.8444 66.4344 50.31C66.5457 50.7149 66.8256 51.0528 67.2029 51.2373C67.5803 51.4219 68.0186 51.4356 68.4068 51.2752C68.8234 51.1028 69.2609 51.0155 69.707 51.0155C71.0762 51.0155 72.3016 51.8313 72.8289 53.094C73.0465 53.6151 73.5441 53.9645 74.108 53.9926C75.4836 54.0608 76.6688 54.95 77.1275 56.2586C77.3842 56.9906 78.1666 57.3949 78.9125 57.1823C79.2184 57.0949 79.5375 57.0504 79.8607 57.0504C80.6346 57.0504 81.358 57.3016 81.9529 57.7766C81.9795 57.7977 82.0068 57.8182 82.0348 57.8375C82.8162 58.3772 83.3394 59.2207 83.4705 60.1526C83.5803 60.933 84.2883 61.4877 85.0717 61.4057C85.2012 61.3924 85.3148 61.3858 85.4193 61.3858C87.2828 61.3858 88.7988 62.902 88.7988 64.7655C88.7988 64.9918 88.7764 65.2211 88.732 65.4467C88.5842 66.2008 89.0441 66.941 89.7857 67.1426C91.2551 67.5414 92.2812 68.8838 92.2812 70.4072C92.2812 70.6973 92.2453 70.9811 92.1738 71.2567H7.82109C7.74922 70.9823 7.71309 70.6985 7.71309 70.4072C7.71309 68.8834 8.74121 67.541 10.2133 67.1426ZM97.0703 78.1082C97.0703 80.268 95.3109 82.025 93.1482 82.025H53.7398C52.9309 82.025 52.275 82.6807 52.275 83.4899C52.275 84.299 52.9309 84.9547 53.7398 84.9547H89.3359V87.0776C89.3359 88.2481 88.3838 89.2004 87.2131 89.2004H12.7869C11.6164 89.2004 10.6641 88.2481 10.6641 87.0776V84.9547H46.9301C47.7391 84.9547 48.3949 84.299 48.3949 83.4899C48.3949 82.6807 47.7391 82.025 46.9301 82.025H6.84629C4.68672 82.025 2.92969 80.268 2.92969 78.1082V74.186H97.0703V78.1082Z" fill="#262833" fill-opacity="0.75"/>
<path d="M60.5613 56.555C61.0021 56.114 61.589 55.8712 62.2132 55.8712C62.8376 55.8712 63.4246 56.114 63.8654 56.555C64.1515 56.8411 64.5263 56.9841 64.9013 56.9841C65.2763 56.9841 65.6511 56.8411 65.9371 56.5552C66.5091 55.9831 66.5091 55.0556 65.9371 54.4837C64.9427 53.4892 63.6203 52.9415 62.2132 52.9415C60.8062 52.9415 59.4837 53.4892 58.4894 54.4837C57.9173 55.0558 57.9175 55.9833 58.4894 56.5552C59.0617 57.1271 59.989 57.1273 60.5613 56.555Z" fill="#262833" fill-opacity="0.75"/>
<path d="M76.9541 67.1936C77.3289 67.1936 77.7039 67.0506 77.99 66.7645C78.4309 66.3235 79.0176 66.0807 79.642 66.0807C80.2664 66.0807 80.8531 66.3235 81.294 66.7645C81.866 67.3367 82.7936 67.3365 83.3656 66.7647C83.9377 66.1926 83.9377 65.2651 83.3656 64.6932C82.3713 63.6987 81.0488 63.151 79.6418 63.151C78.2348 63.151 76.9123 63.6987 75.918 64.6932C75.3459 65.2653 75.3461 66.1928 75.9182 66.7647C76.2045 67.0504 76.5793 67.1936 76.9541 67.1936Z" fill="#262833" fill-opacity="0.75"/>
<path d="M54.6973 65.6074C54.9826 65.8928 55.3557 66.035 55.7289 66.035C56.1039 66.035 56.4793 65.8912 56.766 65.6045C57.3381 65.0324 57.3354 64.1024 56.7633 63.5301C56.1912 62.9582 55.2637 62.9582 54.6918 63.5301C54.1197 64.1024 54.1197 65.0297 54.6918 65.6018L54.6973 65.6074Z" fill="#262833" fill-opacity="0.75"/>
<path d="M16.3352 67.1242C16.6205 67.4095 16.9936 67.5517 17.3668 67.5517C17.7418 67.5517 18.1172 67.408 18.4039 67.1212C18.976 66.5492 18.9732 65.6191 18.4012 65.0468C17.8291 64.475 16.9016 64.475 16.3297 65.0468C15.7576 65.6191 15.7576 66.5464 16.3297 67.1185L16.3352 67.1242Z" fill="#262833" fill-opacity="0.75"/>
<path d="M70.9526 61.4988C71.7616 61.4988 72.4174 60.8404 72.4174 60.0312C72.4174 59.2221 71.7616 58.5664 70.9526 58.5664C70.1436 58.5664 69.4877 59.2221 69.4877 60.0312V60.0367C69.4877 60.8461 70.1436 61.4988 70.9526 61.4988Z" fill="#262833" fill-opacity="0.75"/>
<path d="M64.0503 64.5745C63.4832 65.1514 63.4912 66.0788 64.0681 66.646L64.0738 66.6514C64.3584 66.9311 64.7275 67.0704 65.0964 67.0704C65.4757 67.0704 65.855 66.9233 66.1423 66.6309C66.7095 66.0542 66.6988 65.1239 66.1218 64.5567C65.5449 63.9893 64.6175 63.9973 64.0503 64.5745Z" fill="#262833" fill-opacity="0.75"/>
</g>
<defs>
<clipPath id="clip0">
<rect width="100" height="100" fill="white"/>
</clipPath>
</defs>
</svg>
