<svg width="100" height="100" viewBox="0 0 100 100" fill="none" xmlns="http://www.w3.org/2000/svg">
<path d="M53.0492 84.8877C52.2434 84.9598 51.6484 85.6713 51.7203 86.4771C51.7885 87.2387 52.4275 87.8117 53.1777 87.8117C53.2215 87.8117 53.2654 87.8098 53.3098 87.8059C62.4336 86.9906 68.8057 83.0102 68.8057 78.126C68.8057 75.2994 66.7076 72.7311 62.898 70.8941C59.4283 69.2211 54.8477 68.2998 50 68.2998C45.1523 68.2998 40.5717 69.2211 37.102 70.8941C33.2924 72.7311 31.1943 75.2994 31.1943 78.126C31.1943 83.0068 37.5611 86.9869 46.677 87.8049C47.4807 87.8764 48.1945 87.2826 48.2668 86.4767C48.3391 85.6709 47.7445 84.9592 46.9387 84.8867C39.7529 84.242 34.124 81.2723 34.124 78.1258C34.124 76.5094 35.6732 74.8354 38.3744 73.5328C41.4551 72.0473 45.584 71.2291 50 71.2291C59.3559 71.2291 65.876 74.8637 65.876 78.1256C65.876 81.2748 60.2418 84.2451 53.0492 84.8877Z" fill="#262833" fill-opacity="0.75"/>
<path d="M88.3312 32.4422C87.6531 31.6486 86.6658 31.1936 85.6221 31.1936H81.8039V20.2535C81.8039 19.4445 81.1482 18.7887 80.3391 18.7887C79.5299 18.7887 78.8742 19.4445 78.8742 20.2535V31.5635C77.7881 32.1014 77.0019 33.1754 76.8957 34.4412C76.6058 37.8957 75.4564 41.2016 73.6611 44.1787V13.574C73.6611 12.268 72.6598 11.1922 71.3846 11.0719V2.92969H78.8742V13.8695C78.8742 14.6785 79.5299 15.3344 80.3391 15.3344C81.1482 15.3344 81.8039 14.6785 81.8039 13.8695V2.51406C81.8039 1.12773 80.676 0 79.2898 0H70.9689C69.5826 0 68.4549 1.12773 68.4549 2.51406V11.06H65.051V2.51406C65.051 1.12773 63.9232 0 62.5369 0H54.2158C52.8295 0 51.7017 1.12773 51.7017 2.51406V11.06H48.2978V2.51406C48.298 1.12773 47.1703 0 45.784 0H37.4629C36.0766 0 34.9488 1.12773 34.9488 2.51406V11.06H31.5449V2.51406C31.5451 1.12773 30.4172 0 29.031 0H20.7101C19.3238 0 18.1961 1.12773 18.1961 2.51406V31.1936H14.3779C13.3342 31.1936 12.3469 31.6486 11.6687 32.4422C10.9906 33.2357 10.6953 34.282 10.8582 35.3133L15.0158 61.6129C15.142 62.4119 15.8918 62.9568 16.6914 62.8311C17.4906 62.7047 18.0359 61.9545 17.9096 61.1555L13.7519 34.8561C13.7123 34.6049 13.8252 34.4283 13.8961 34.3453C13.9668 34.2625 14.1236 34.1232 14.3779 34.1232H19.5562C19.8822 34.1232 20.1584 34.3705 20.185 34.6861C20.7648 41.5994 24.2832 48.11 30.0922 53.0191C35.6877 57.7477 42.9439 60.4598 50.0002 60.4598C57.0564 60.4598 64.3125 57.7477 69.9082 53.0191C75.717 48.1102 79.2355 41.5994 79.8154 34.6861C79.842 34.3705 80.1181 34.1232 80.4441 34.1232H85.6224C85.8767 34.1232 86.0334 34.2623 86.1043 34.3453C86.1752 34.4283 86.2881 34.6049 86.2484 34.8559L76.9055 93.9564C76.5818 95.7615 75.0183 97.0703 73.1832 97.0703H26.8172C24.9822 97.0703 23.4187 95.7615 23.0949 93.9564L18.9066 67.4617C18.7805 66.6627 18.0314 66.118 17.231 66.2436C16.4318 66.3699 15.8865 67.1201 16.0129 67.9191L20.2035 94.4275C20.2049 94.4359 20.2064 94.4445 20.2076 94.4529C20.7738 97.667 23.5535 99.9998 26.8172 99.9998H73.183C76.4467 99.9998 79.2262 97.667 79.7926 94.4529C79.7939 94.4445 79.7955 94.4359 79.7967 94.4275L89.142 35.3131C89.3047 34.282 89.0092 33.2357 88.3312 32.4422ZM62.1213 2.92969V11.1623C61.0773 11.468 60.3121 12.4326 60.3121 13.574V55.4633C59.0527 55.9801 57.7514 56.4068 56.4201 56.7369V13.574C56.4201 12.44 55.665 11.4799 54.6314 11.1676V2.92969H62.1213ZM45.3683 2.92969V11.0709C44.0834 11.1814 43.0711 12.2609 43.0711 13.574V56.6063C41.9168 56.2967 40.7863 55.9141 39.6877 55.4633V13.574C39.6877 12.4326 38.9225 11.4682 37.8785 11.1623V2.92969H45.3683ZM21.1258 31.5635V2.92969H28.6154V11.0719C27.3402 11.192 26.3389 12.2678 26.3389 13.574V44.1789C24.5437 41.2018 23.3941 37.8959 23.1043 34.4414C22.998 33.1754 22.2119 32.1016 21.1258 31.5635ZM29.2683 48.132V13.9896H36.758V54.0613C33.9238 52.5035 31.3766 50.4842 29.2683 48.132ZM46.0008 57.2219V13.9896H53.4906V57.2949C52.3404 57.4488 51.175 57.5303 50 57.5303C48.6514 57.5303 47.3154 57.4234 46.0008 57.2219ZM63.242 54.0613V13.9896H69.918H69.9199H69.9219H70.7318V48.132C68.6234 50.4842 66.0762 52.5035 63.242 54.0613Z" fill="#262833" fill-opacity="0.75"/>
</svg>
