<svg width="100" height="100" viewBox="0 0 100 100" fill="none" xmlns="http://www.w3.org/2000/svg">
<path d="M46.875 28.5326V43.75H23.4375C23.0231 43.75 22.6257 43.9146 22.3326 44.2076C22.0396 44.5007 21.875 44.8981 21.875 45.3125V51.1936L18.915 57.1137C18.8065 57.3306 18.75 57.5699 18.75 57.8125V89.0625C18.75 89.3051 18.8065 89.5444 18.915 89.7613L22.04 96.0113C22.1698 96.2708 22.3693 96.4891 22.6161 96.6416C22.8629 96.7942 23.1473 96.875 23.4375 96.875H48.4375C48.7277 96.875 49.0121 96.7942 49.2589 96.6416C49.5057 96.4891 49.7052 96.2708 49.835 96.0113L49.8639 95.9527C51.157 96.7463 52.6949 97.0415 54.19 96.783C55.685 96.5245 57.0346 95.7301 57.9861 94.5484C59.4195 95.967 61.6109 96.875 64.0625 96.875C66.5141 96.875 68.7055 95.967 70.1389 94.5492C70.9503 95.5556 72.054 96.2854 73.2977 96.6381C74.5415 96.9908 75.864 96.9491 77.0829 96.5186C78.3019 96.088 79.3573 95.29 80.1037 94.2344C80.85 93.1789 81.2505 91.9178 81.25 90.625C81.25 90.5924 81.25 90.56 81.2469 90.5273L79.6945 65.6871L81.2342 54.9082C81.244 54.8351 81.2487 54.7613 81.2481 54.6875H81.25V28.5326C81.2525 26.9293 80.7593 25.3644 79.8377 24.0523L71.751 12.5H71.875C72.2894 12.5 72.6868 12.3354 72.9799 12.0424C73.2729 11.7493 73.4375 11.3519 73.4375 10.9375V7.8125C73.4361 6.56973 72.9418 5.37825 72.063 4.49948C71.1843 3.6207 69.9928 3.1264 68.75 3.125H59.375C58.1322 3.1264 56.9408 3.6207 56.062 4.49948C55.1832 5.37825 54.6889 6.56973 54.6875 7.8125V10.9375C54.6875 11.3519 54.8521 11.7493 55.1451 12.0424C55.4382 12.3354 55.8356 12.5 56.25 12.5H56.374L48.2881 24.0523C47.3663 25.3643 46.8727 26.9292 46.875 28.5326ZM21.875 87.5V59.375H34.5486C36.0938 63.365 37.5 67.5861 37.5 71.875C37.5 78.8672 35.3611 82.9688 32.7998 87.5H21.875ZM37.8924 59.375H40.7986C42.3438 63.365 43.75 67.5861 43.75 71.875C43.75 78.8672 41.6111 82.9688 39.0498 87.5H36.3773C38.693 83.2617 40.625 78.8223 40.625 71.875C40.625 67.4838 39.3682 63.3141 37.8924 59.375ZM47.4719 93.75H24.4031L22.8406 90.625H49.0344L47.4719 93.75ZM75 93.75C74.1715 93.749 73.3772 93.4195 72.7914 92.8336C72.2055 92.2478 71.876 91.4535 71.875 90.625C71.875 90.2106 71.7104 89.8132 71.4174 89.5201C71.1243 89.2271 70.7269 89.0625 70.3125 89.0625C69.8981 89.0625 69.5007 89.2271 69.2076 89.5201C68.9146 89.8132 68.75 90.2106 68.75 90.625C68.75 92.3189 66.6033 93.75 64.0625 93.75C61.5217 93.75 59.375 92.3189 59.375 90.625C59.375 90.2106 59.2104 89.8132 58.9174 89.5201C58.6243 89.2271 58.2269 89.0625 57.8125 89.0625C57.3981 89.0625 57.0007 89.2271 56.7076 89.5201C56.4146 89.8132 56.25 90.2106 56.25 90.625C56.2502 91.2032 56.09 91.7701 55.7871 92.2626C55.4842 92.7551 55.0505 93.1539 54.5344 93.4146C54.0183 93.6752 53.4399 93.7875 52.8638 93.7389C52.2876 93.6903 51.7363 93.4827 51.2711 93.1393L52.96 89.7604C53.0684 89.5437 53.1249 89.3048 53.125 89.0625V57.8125C53.125 57.5699 53.0685 57.3306 52.96 57.1137L52.5281 56.25H77.8859L76.5783 65.4041C76.5631 65.5095 76.5588 65.6162 76.5656 65.7225L78.125 90.6689C78.1125 91.4898 77.7779 92.2729 77.1933 92.8492C76.6087 93.4256 75.821 93.7491 75 93.75ZM57.8125 7.8125C57.813 7.39824 57.9777 7.00108 58.2707 6.70816C58.5636 6.41523 58.9607 6.25047 59.375 6.25H68.75C69.1643 6.25047 69.5614 6.41523 69.8543 6.70816C70.1473 7.00108 70.312 7.39824 70.3125 7.8125V9.375H57.8125V7.8125ZM50 28.5326C49.9985 27.5707 50.2944 26.6318 50.8473 25.8445L60.1885 12.5H67.9365L77.2777 25.8445C77.8306 26.6318 78.1265 27.5707 78.125 28.5326V31.25H50V28.5326ZM50 45.3125V34.375H78.125V53.125H50.9656L50 51.1936V45.3125ZM50 87.5H42.6273C44.943 83.2617 46.875 78.8223 46.875 71.875C46.875 67.4838 45.6182 63.3141 44.1424 59.375H50V87.5ZM22.8406 56.25L24.4031 53.125H39.0625C39.4769 53.125 39.8743 52.9604 40.1674 52.6674C40.4604 52.3743 40.625 51.9769 40.625 51.5625C40.625 51.1481 40.4604 50.7507 40.1674 50.4576C39.8743 50.1646 39.4769 50 39.0625 50H25V46.875H46.875V50H45.3125C44.8981 50 44.5007 50.1646 44.2076 50.4576C43.9146 50.7507 43.75 51.1481 43.75 51.5625C43.75 51.9769 43.9146 52.3743 44.2076 52.6674C44.5007 52.9604 44.8981 53.125 45.3125 53.125H47.4719L49.0344 56.25H22.8406Z" fill="#262833" fill-opacity="0.75"/>
</svg>
